<svg width="208" height="189" viewBox="0 0 208 189" fill="none" xmlns="http://www.w3.org/2000/svg">
<g id="inbox-cleanup/pana">
<g id="background-complete">
<path id="Vector" d="M151.663 183.454C150.934 182.83 149.307 180.85 150.563 178.543C151.022 177.7 151.998 177.283 152.878 176.911C153.789 176.605 154.647 176.161 155.423 175.595C156.798 174.422 157.184 172.473 158.096 170.91C159.15 169.112 161.108 167.765 163.181 167.861C165.555 167.966 167.531 169.906 168.43 172.116C169.329 174.325 169.347 176.778 169.379 179.162C169.379 180.483 169.329 181.973 168.361 182.862C167.467 183.683 166.124 183.692 164.914 183.655L151.948 183.257" fill="#F5F5F5"/>
<path id="Vector_2" d="M176.461 147.797H142.359L148.503 184.425C148.63 185.188 148.971 185.9 149.487 186.477C150.002 187.054 150.67 187.473 151.414 187.685L151.534 187.717C151.634 187.745 151.735 187.777 151.836 187.795C152.066 187.842 152.299 187.869 152.533 187.878V187.91H152.698H167.897C168.177 187.909 168.457 187.88 168.731 187.823C169.617 187.683 170.433 187.258 171.056 186.613C171.679 185.968 172.075 185.137 172.184 184.247L175.15 158.984L175.283 157.98L176.438 147.981L176.461 147.797ZM170.042 171.18H166.54L166.897 160.548H170.95L170.042 171.18ZM171.29 160.548H174.641L173.394 171.18H170.386L171.29 160.548ZM161.29 182.963L161.079 173.729H166.122L165.801 182.944L161.29 182.963ZM155.843 173.729H160.74L160.951 182.963H156.563L155.843 173.729ZM156.224 182.963H152.097C151.708 180.469 151.181 177.232 150.649 173.729H155.486L156.224 182.963ZM155.646 171.18L154.798 160.529H160.414L160.657 171.162L155.646 171.18ZM161.02 171.18L160.758 160.529H166.54L166.187 171.162L161.02 171.18ZM160.717 157.999L160.488 148.155H166.966L166.641 157.999H160.717ZM160.378 157.999H154.605L153.844 148.155H160.139L160.378 157.999ZM154.28 157.999H148.177L147.572 154.198C146.935 150.214 146.697 148.719 146.564 148.155H153.505L154.28 157.999ZM154.482 160.548L155.307 171.18H150.264C150.094 170.102 149.924 169.011 149.75 167.92C149.356 165.408 148.961 162.9 148.59 160.548H154.482ZM149.924 171.18H146.637L144.854 160.548H148.251C148.755 163.817 149.333 167.471 149.911 171.162L149.924 171.18ZM150.328 173.729C150.828 176.938 151.323 180.074 151.772 182.963H148.613L147.063 173.729H150.328ZM166.15 182.963L166.457 173.729H169.822L169.011 182.944L166.15 182.963ZM166.98 157.999L167.305 148.155H172.009L171.166 157.999H166.98ZM146.256 148.155C146.394 148.866 147.013 152.74 147.847 157.999H144.427L142.772 148.155H146.256ZM172.009 182.963H169.373L170.162 173.729H173.091L172.009 182.963ZM174.939 157.999H171.505L172.349 148.155H176.094L174.939 157.999Z" fill="#E0E0E0"/>
<path id="Vector_3" d="M42.1216 70.2034C42.1216 70.2034 42.0436 70.0612 41.9107 69.7953L41.3192 68.6124L39.091 64.1102C37.1745 60.2268 34.4374 54.67 31.1134 47.9258L31.2464 47.9716L0.711579 62.9319L0.766597 62.7714L11.6739 85.0948L11.5271 85.0444L33.5709 74.3205L39.8567 71.2762L41.553 70.4968L41.984 70.2951L42.1399 70.2263L42.0023 70.2997L41.553 70.4968L39.9071 71.3175L33.6718 74.3985L11.6234 85.2415L11.5271 85.292L11.4767 85.1911L0.551111 62.8814L0.496094 62.7714L0.606129 62.721L31.1593 47.802L31.2464 47.7607L31.2877 47.8479L39.201 64.1285L41.3742 68.6308L41.9382 69.8091L42.1216 70.2034Z" fill="#E0E0E0"/>
<path id="Vector_4" d="M31.2021 47.8848C31.199 47.9257 31.1898 47.9659 31.1746 48.004C31.1471 48.0957 31.1104 48.2103 31.0646 48.3478C30.9591 48.6688 30.8124 49.1089 30.6061 49.6637C30.2072 50.8236 29.6387 52.465 28.9372 54.4869L23.3713 70.3732L23.2154 70.4466H23.1879H23.1512L23.0778 70.4237L22.9311 70.3732L22.6377 70.277L22.06 70.0844L20.923 69.6809L18.681 68.9336L14.4401 67.5169L7.26483 65.1053L2.43244 63.4594L1.12577 63.0009L0.786495 62.8771C0.74582 62.8666 0.707113 62.8495 0.671875 62.8267C0.712777 62.8297 0.752974 62.839 0.79108 62.8542L1.13953 62.955L2.46453 63.3722L7.31985 64.9448L14.5042 67.2877L18.7498 68.6906L20.9963 69.4379L22.1425 69.8185L22.7248 70.011L23.0136 70.1073L23.1604 70.1532L23.2337 70.1807H23.2704H23.2979C23.2337 70.2128 23.4538 70.1119 23.1558 70.2586C25.3611 64.0691 27.3555 58.4711 28.8043 54.3952L30.5511 49.6316C30.7528 49.0814 30.9178 48.6458 31.0095 48.3341L31.1425 47.9948L31.2021 47.8848Z" fill="#E0E0E0"/>
<path id="Vector_5" d="M15.7052 67.8301C15.7694 67.8301 14.8983 71.7593 13.7567 76.5734C12.6151 81.3874 11.6339 85.2845 11.5697 85.2616C11.5055 85.2387 12.3812 81.3324 13.5228 76.5184C14.6645 71.7043 15.641 67.8118 15.7052 67.8301Z" fill="#E0E0E0"/>
<path id="Vector_6" d="M42.441 70.3689C42.4135 70.424 38.7457 68.6267 34.248 66.3527C29.7503 64.0786 26.1283 62.1851 26.1604 62.1255C26.1925 62.0659 29.8603 63.8631 34.358 66.1418C38.8557 68.4204 42.4685 70.3093 42.441 70.3689Z" fill="#E0E0E0"/>
<path id="Vector_7" d="M193.186 72.8269C193.186 72.8269 193.255 72.7169 193.392 72.5197L194.007 71.6532L196.345 68.3796L204.813 56.5875V56.7251L181.247 39.7017L181.417 39.6742L169.703 55.8494L169.68 55.6981L186.607 68.0129L191.439 71.5432L192.727 72.4876L193.058 72.7352C193.131 72.7948 193.172 72.8223 193.172 72.8269L193.062 72.7536L192.732 72.5243L191.448 71.6073L186.602 68.1367L169.565 55.8723L169.469 55.8264L169.533 55.7348L181.229 39.5504L181.302 39.4541L181.398 39.5229L204.941 56.5829L205.019 56.638L204.96 56.7159L196.386 68.4805C195.364 69.856 194.552 70.9609 194.016 71.7128C193.75 72.075 193.557 72.3547 193.397 72.5472C193.236 72.7398 193.186 72.8269 193.186 72.8269Z" fill="#E0E0E0"/>
<path id="Vector_8" d="M204.89 56.6465C204.759 56.6777 204.625 56.7006 204.491 56.7153L203.349 56.8758L199.145 57.4122L185.267 59.104C185.006 58.9114 185.194 59.0444 185.134 58.9985V58.9527V58.8885L185.111 58.7647L185.061 58.5125L184.96 58.0174C184.891 57.6873 184.827 57.3572 184.758 57.0316C184.63 56.3806 184.497 55.7387 184.373 55.106C184.121 53.8452 183.873 52.6256 183.644 51.4657C183.185 49.1733 182.768 47.0643 182.42 45.3037C182.071 43.5431 181.81 42.1448 181.617 41.1407L181.411 40.0083C181.384 39.8765 181.364 39.7433 181.352 39.6094C181.398 39.7359 181.434 39.8663 181.457 39.9991C181.517 40.2742 181.604 40.6501 181.709 41.1224L182.585 45.2487C182.947 47.0093 183.378 49.0908 183.859 51.4061C184.093 52.566 184.345 53.781 184.602 55.0418C184.731 55.6745 184.859 56.3164 184.992 56.9675C185.061 57.293 185.125 57.6185 185.194 57.9486L185.294 58.4483L185.345 58.6959L185.368 58.8243V58.8839V58.9389C185.313 58.8977 185.501 59.0398 185.239 58.8518L199.127 57.2334L203.34 56.7749L204.486 56.6603C204.62 56.6444 204.755 56.6398 204.89 56.6465Z" fill="#E0E0E0"/>
<path id="Vector_9" d="M183.944 52.511C183.944 52.5752 180.735 53.3683 176.773 54.2853C172.812 55.2023 169.561 55.89 169.543 55.8258C169.525 55.7616 172.752 54.9684 176.718 54.0515C180.684 53.1345 183.93 52.4468 183.944 52.511Z" fill="#E0E0E0"/>
<path id="Vector_10" d="M193.199 73.1248C193.135 73.1248 192.906 69.7733 192.695 65.6333C192.484 61.4932 192.365 58.1325 192.434 58.1279C192.502 58.1233 192.722 61.4794 192.933 65.6195C193.144 69.7596 193.263 73.1202 193.199 73.1248Z" fill="#E0E0E0"/>
<path id="Vector_11" d="M146.969 156.802L147.326 156.939L148.344 157.361L152.209 158.975L166.11 164.821L165.987 164.871L177.769 137.055L177.834 137.216L158.738 129.091L158.88 129.032L150.325 149.035C149.275 151.479 148.445 153.418 147.867 154.752C147.583 155.408 147.363 155.917 147.207 156.27L147.038 156.664L146.969 156.802C146.969 156.802 146.969 156.756 147.019 156.669C147.07 156.582 147.111 156.449 147.175 156.284L147.803 154.775L150.215 149.058C152.292 144.139 155.231 137.17 158.697 128.945L158.738 128.844L158.839 128.89L177.93 136.977L178.04 137.023L177.99 137.133C173.547 147.582 169.439 157.228 166.161 164.935L166.124 165.022L166.037 164.986L152.117 159.026L148.294 157.375L147.303 156.944L146.969 156.802Z" fill="#E0E0E0"/>
<path id="Vector_12" d="M166.071 164.912C166.052 164.882 166.037 164.85 166.026 164.816C165.994 164.738 165.957 164.642 165.906 164.527C165.806 164.252 165.663 163.876 165.485 163.404C165.118 162.409 164.6 161.002 163.967 159.278L159.043 145.606C159.171 145.308 159.084 145.523 159.112 145.454H159.144L159.203 145.427L159.323 145.372L159.566 145.262L160.047 145.046L160.996 144.615L162.858 143.776L166.374 142.195L172.334 139.526L176.36 137.747L177.46 137.289L177.749 137.174C177.818 137.147 177.85 137.138 177.85 137.142L177.758 137.197L177.483 137.335L176.401 137.848L172.403 139.682L166.443 142.396L162.931 143.992L161.097 144.831L160.143 145.262L159.685 145.482L159.446 145.587L159.323 145.642L159.263 145.67H159.236C159.258 145.606 159.167 145.821 159.291 145.528C161.184 150.865 162.899 155.697 164.146 159.218C164.751 160.96 165.246 162.377 165.595 163.377C165.755 163.858 165.883 164.234 165.975 164.514C166.012 164.633 166.044 164.729 166.071 164.812C166.076 164.845 166.076 164.879 166.071 164.912Z" fill="#E0E0E0"/>
<path id="Vector_13" d="M165.41 142.736C165.351 142.763 163.801 139.692 161.953 135.859C160.106 132.026 158.657 128.926 158.717 128.894C158.776 128.862 160.321 131.939 162.169 135.772C164.017 139.604 165.465 142.708 165.41 142.736Z" fill="#E0E0E0"/>
<path id="Vector_14" d="M146.668 156.885C146.668 156.82 149.997 155.816 154.141 154.643C158.286 153.469 161.674 152.566 161.674 152.635C161.674 152.703 158.345 153.703 154.201 154.877C150.056 156.05 146.686 156.949 146.668 156.885Z" fill="#E0E0E0"/>
<path id="Vector_15" d="M176.601 8.45117H39.5195V123.69H176.601V8.45117Z" fill="#EBEBEB"/>
<path id="Vector_16" d="M39.7812 16.3975C39.7812 16.3333 70.3527 16.2783 108.054 16.2783C145.754 16.2783 176.344 16.3471 176.344 16.3975C176.344 16.448 145.782 16.5167 108.067 16.5167C70.3527 16.5167 39.7812 16.4755 39.7812 16.3975Z" fill="#E0E0E0"/>
<path id="Vector_17" d="M43.9554 13.7517C44.7657 13.7517 45.4226 13.0948 45.4226 12.2845C45.4226 11.4742 44.7657 10.8174 43.9554 10.8174C43.1451 10.8174 42.4883 11.4742 42.4883 12.2845C42.4883 13.0948 43.1451 13.7517 43.9554 13.7517Z" fill="#E0E0E0"/>
<path id="Vector_18" d="M48.0296 13.7517C48.8399 13.7517 49.4968 13.0948 49.4968 12.2845C49.4968 11.4742 48.8399 10.8174 48.0296 10.8174C47.2194 10.8174 46.5625 11.4742 46.5625 12.2845C46.5625 13.0948 47.2194 13.7517 48.0296 13.7517Z" fill="#E0E0E0"/>
<path id="Vector_19" d="M52.557 13.7517C53.3673 13.7517 54.0241 13.0948 54.0241 12.2845C54.0241 11.4742 53.3673 10.8174 52.557 10.8174C51.7467 10.8174 51.0898 11.4742 51.0898 12.2845C51.0898 13.0948 51.7467 13.7517 52.557 13.7517Z" fill="#E0E0E0"/>
</g>
<g id="Floor">
<path id="Vector_20" d="M200.948 188.135C200.948 188.204 156.205 188.254 101.027 188.254C45.8488 188.254 1.07812 188.204 1.07812 188.135C1.07812 188.066 45.8121 188.016 101.027 188.016C156.242 188.016 200.948 188.071 200.948 188.135Z" fill="#263238"/>
</g>
<g id="Screen">
<path id="Vector_21" d="M171.3 135.928C171.3 135.089 171.259 88.9196 171.2 17.6855L171.3 17.7726H30.6569L30.7761 17.6534C30.7761 60.503 30.7761 100.918 30.7761 135.896L30.6661 135.79L171.323 135.896L30.6661 136.001H30.5469V135.896C30.5469 100.918 30.5469 60.503 30.5469 17.6534V17.5342H30.6798H171.323H171.424V17.635C171.36 88.9196 171.3 135.089 171.3 135.928Z" fill="#FAFAFA"/>
<path id="Vector_22" d="M171.317 17.6855H30.6602V135.928H171.317V17.6855Z" fill="#FAFAFA"/>
<path id="Vector_23" d="M81.4398 25.8506H30.9336V37.4272H81.4398V25.8506Z" fill="#EBEBEB"/>
<path id="Vector_24" d="M43.6729 35.195C43.6729 35.195 43.6729 35.0437 43.6729 34.7686C43.6729 34.4935 43.6729 34.0854 43.6729 33.604C43.6729 32.577 43.6454 31.1558 43.6224 29.441L43.7187 29.5373H35.3423L35.4615 29.4181V32.4028C35.4615 33.3656 35.4615 34.2872 35.4615 35.1537L35.3515 35.0437L41.3621 35.0987L43.0952 35.1308H43.5537H43.7233C43.527 35.1526 43.3294 35.1618 43.1319 35.1583L41.4217 35.1858L35.3423 35.2408H35.2368V35.195C35.2368 34.3193 35.2368 33.3977 35.2368 32.4441V30.9678C35.2368 30.7202 35.2368 30.468 35.2368 30.2159V29.4319C35.1314 29.5373 35.3835 29.2852 35.3606 29.3127H43.7371H43.8333V29.4089C43.8333 31.1512 43.7967 32.5908 43.7829 33.6315C43.7829 34.09 43.7829 34.4843 43.7829 34.7777C43.7597 34.92 43.7229 35.0598 43.6729 35.195Z" fill="#263238"/>
<path id="Vector_25" d="M43.674 29.4226C43.674 29.4226 43.5777 29.5555 43.376 29.7618C43.1743 29.9681 42.8762 30.257 42.5049 30.6146C41.7621 31.3298 40.7214 32.3064 39.566 33.3655C39.2405 33.3655 39.4743 33.3655 39.401 33.3655H39.3734L39.3184 33.3151L39.213 33.2142L38.9975 33.017L38.5849 32.6319L37.8009 31.9029L36.4667 30.61C36.0953 30.2524 35.7973 29.9636 35.591 29.7572C35.477 29.6579 35.3767 29.5438 35.293 29.418C35.293 29.418 35.4351 29.5005 35.6552 29.6885C35.8752 29.8764 36.1916 30.147 36.5721 30.4862L37.9201 31.6966L38.7087 32.4164L39.1259 32.797L39.3414 32.9941L39.4468 33.095L39.5018 33.1408L39.5293 33.1683H39.3826C40.538 32.1047 41.5925 31.1464 42.3673 30.4633C42.7524 30.124 43.0688 29.8489 43.2843 29.6655C43.4018 29.5662 43.5331 29.4844 43.674 29.4226Z" fill="#263238"/>
<path id="Vector_26" d="M38.0865 31.9854C37.7136 32.5935 37.2738 33.1579 36.7752 33.668C36.3378 34.2316 35.8379 34.7437 35.2852 35.1947C35.6588 34.5886 36.0986 34.0258 36.5964 33.5167C37.0346 32.9524 37.5344 32.4388 38.0865 31.9854Z" fill="#263238"/>
<path id="Vector_27" d="M43.7259 35.2455C43.1853 34.764 42.6994 34.2243 42.2771 33.6362C41.7924 33.0956 41.3681 32.5038 41.0117 31.8711C41.5531 32.3535 42.0391 32.8948 42.4605 33.4849C42.9457 34.0235 43.3701 34.6139 43.7259 35.2455Z" fill="#263238"/>
<path id="Vector_28" d="M75.6461 31.4356C75.6461 31.5044 69.7317 31.5548 62.4418 31.5548C55.152 31.5548 49.2422 31.5044 49.2422 31.4356C49.2422 31.3668 55.152 31.3164 62.4418 31.3164C69.7317 31.3164 75.6461 31.3714 75.6461 31.4356Z" fill="#263238"/>
<path id="Vector_29" d="M171.319 77.2744H80.8008V97.1083H171.319V77.2744Z" fill="#333333"/>
<g id="Group" opacity="0.8">
<path id="Vector_30" d="M171.319 77.2739H80.8008V97.1078H171.319V77.2739Z" fill="white"/>
</g>
<path id="Vector_31" d="M93.0254 83.4727H87.6566C87.0869 83.4727 86.625 83.9345 86.625 84.5042V89.873C86.625 90.4428 87.0869 90.9046 87.6566 90.9046H93.0254C93.5951 90.9046 94.057 90.4428 94.057 89.873V84.5042C94.057 83.9345 93.5951 83.4727 93.0254 83.4727Z" fill="#333333"/>
<path id="Vector_32" d="M89.7756 88.8377C89.6764 88.8377 89.5798 88.8055 89.5005 88.746L88.0012 87.6181C87.9472 87.5845 87.9008 87.5399 87.8649 87.4873C87.829 87.4347 87.8045 87.3752 87.7929 87.3127C87.7812 87.2501 87.7828 87.1857 87.7974 87.1238C87.812 87.0618 87.8393 87.0036 87.8777 86.9528C87.916 86.9019 87.9645 86.8597 88.0201 86.8286C88.0757 86.7976 88.1371 86.7785 88.2005 86.7725C88.2639 86.7665 88.3278 86.7738 88.3882 86.7939C88.4487 86.814 88.5042 86.8464 88.5514 86.8891L89.7205 87.7648L92.068 85.2157C92.1506 85.1263 92.2654 85.0734 92.3871 85.0687C92.5088 85.064 92.6273 85.1078 92.7167 85.1905C92.8061 85.2731 92.8589 85.3879 92.8637 85.5096C92.8684 85.6313 92.8246 85.7498 92.7419 85.8392L90.1148 88.691C90.0716 88.7376 90.019 88.7748 89.9606 88.8C89.9022 88.8253 89.8392 88.8381 89.7756 88.8377Z" fill="white"/>
<path id="Vector_33" d="M171.319 57.3398H80.8008V77.1737H171.319V57.3398Z" fill="#333333"/>
<path id="Vector_34" d="M170.772 77.2466C170.772 77.3154 150.773 77.3658 126.107 77.3658C101.44 77.3658 81.4414 77.3154 81.4414 77.2466C81.4414 77.1779 101.436 77.1274 126.107 77.1274C150.777 77.1274 170.772 77.1825 170.772 77.2466Z" fill="#263238"/>
<path id="Vector_35" d="M171.369 116.923H80.8516V135.927H171.369V116.923Z" fill="#333333"/>
<g id="Group_2" opacity="0.8">
<path id="Vector_36" d="M171.369 116.923H80.8516V135.927H171.369V116.923Z" fill="white"/>
</g>
<path id="Vector_37" d="M93.0723 123.127H87.7035C87.1337 123.127 86.6719 123.589 86.6719 124.159V129.527C86.6719 130.097 87.1337 130.559 87.7035 130.559H93.0723C93.642 130.559 94.1038 130.097 94.1038 129.527V124.159C94.1038 123.589 93.642 123.127 93.0723 123.127Z" fill="#333333"/>
<path id="Vector_38" d="M89.8249 128.495C89.7257 128.495 89.6292 128.463 89.5498 128.404L88.0506 127.276C87.9533 127.203 87.889 127.094 87.8718 126.974C87.8546 126.854 87.8859 126.731 87.9589 126.634C88.0318 126.537 88.1405 126.472 88.2608 126.455C88.3812 126.438 88.5035 126.469 88.6008 126.542L89.7699 127.423L92.1173 124.873C92.1567 124.825 92.2056 124.784 92.2611 124.755C92.3166 124.726 92.3775 124.709 92.44 124.704C92.5025 124.699 92.5654 124.707 92.6246 124.728C92.6838 124.749 92.7382 124.781 92.7844 124.823C92.8306 124.866 92.8676 124.917 92.8931 124.975C92.9186 125.032 92.9321 125.094 92.9327 125.156C92.9334 125.219 92.9211 125.281 92.8968 125.339C92.8725 125.397 92.8366 125.449 92.7913 125.492L90.1504 128.349C90.1087 128.394 90.0584 128.43 90.0025 128.455C89.9466 128.48 89.8862 128.494 89.8249 128.495Z" fill="white"/>
<g id="Group_3" opacity="0.8">
<path id="Vector_39" d="M171.319 57.3398H80.8008V77.1737H171.319V57.3398Z" fill="white"/>
</g>
<path id="Vector_40" d="M93.0254 63.5381H87.6566C87.0869 63.5381 86.625 63.9999 86.625 64.5697V69.9385C86.625 70.5082 87.0869 70.9701 87.6566 70.9701H93.0254C93.5951 70.9701 94.057 70.5082 94.057 69.9385V64.5697C94.057 63.9999 93.5951 63.5381 93.0254 63.5381Z" fill="#333333"/>
<path id="Vector_41" d="M89.7756 68.9074C89.6764 68.9074 89.5798 68.8752 89.5005 68.8157L88.0012 67.6878C87.9472 67.6541 87.9008 67.6096 87.8649 67.557C87.829 67.5044 87.8045 67.4449 87.7929 67.3823C87.7812 67.3198 87.7828 67.2554 87.7974 67.1935C87.812 67.1315 87.8393 67.0733 87.8777 67.0224C87.916 66.9716 87.9645 66.9294 88.0201 66.8983C88.0757 66.8673 88.1371 66.8482 88.2005 66.8422C88.2639 66.8362 88.3278 66.8435 88.3882 66.8636C88.4487 66.8836 88.5042 66.9161 88.5514 66.9588L89.7205 67.8345L92.068 65.2854C92.1502 65.1962 92.2643 65.1433 92.3855 65.1381C92.5067 65.133 92.6249 65.176 92.7144 65.2579C92.7592 65.2986 92.7955 65.3479 92.8212 65.4028C92.8469 65.4577 92.8614 65.5171 92.864 65.5776C92.8665 65.6382 92.857 65.6986 92.8361 65.7555C92.8152 65.8123 92.7831 65.8645 92.7419 65.9089L90.1148 68.7606C90.0716 68.8073 90.019 68.8444 89.9606 68.8697C89.9022 68.895 89.8392 68.9078 89.7756 68.9074Z" fill="white"/>
<path id="Vector_42" d="M171.3 135.928C171.3 135.089 171.259 88.9196 171.2 17.6855L171.3 17.7726H30.6569L30.7761 17.6534C30.7761 60.503 30.7761 100.918 30.7761 135.896L30.6661 135.79L171.323 135.896L30.6661 136.001H30.5469V135.896C30.5469 100.918 30.5469 60.503 30.5469 17.6534V17.5342H30.6798H171.323H171.424V17.635C171.36 88.9196 171.3 135.089 171.3 135.928Z" fill="#333333"/>
<path id="Vector_43" d="M30.9336 25.8507C30.9336 25.7819 62.2983 25.7314 100.985 25.7314C139.671 25.7314 171.045 25.7819 171.045 25.8507C171.045 25.9194 139.685 25.9699 100.985 25.9699C62.2845 25.9699 30.9336 25.9148 30.9336 25.8507Z" fill="#333333"/>
<path id="Vector_44" d="M35.2187 23.118C36.0492 23.118 36.7225 22.4447 36.7225 21.6142C36.7225 20.7836 36.0492 20.1104 35.2187 20.1104C34.3881 20.1104 33.7148 20.7836 33.7148 21.6142C33.7148 22.4447 34.3881 23.118 35.2187 23.118Z" fill="#333333"/>
<path id="Vector_45" d="M39.4023 23.118C40.2328 23.118 40.9061 22.4447 40.9061 21.6142C40.9061 20.7836 40.2328 20.1104 39.4023 20.1104C38.5717 20.1104 37.8984 20.7836 37.8984 21.6142C37.8984 22.4447 38.5717 23.118 39.4023 23.118Z" fill="#333333"/>
<path id="Vector_46" d="M45.1026 20.5511C45.3129 20.7615 45.456 21.0294 45.514 21.3211C45.5719 21.6128 45.5421 21.9151 45.4282 22.1899C45.3144 22.4646 45.1216 22.6994 44.8744 22.8646C44.6271 23.0298 44.3364 23.118 44.039 23.118C43.7416 23.118 43.4509 23.0298 43.2036 22.8646C42.9563 22.6994 42.7636 22.4646 42.6497 22.1899C42.5359 21.9151 42.506 21.6128 42.564 21.3211C42.6219 21.0294 42.7651 20.7615 42.9753 20.5511C43.115 20.4114 43.2808 20.3005 43.4633 20.2249C43.6458 20.1493 43.8414 20.1104 44.039 20.1104C44.2365 20.1104 44.4322 20.1493 44.6147 20.2249C44.7972 20.3005 44.963 20.4114 45.1026 20.5511Z" fill="#333333"/>
<path id="Vector_47" d="M49.3437 42.0724C49.4518 42.059 49.5611 42.059 49.6692 42.0724L50.6228 42.0449L54.1164 41.999H54.1623L54.1898 42.0357L55.7303 44.0622L55.7532 44.0943V44.131C55.7532 45.0479 55.7532 46.0657 55.7532 47.1203V47.2395H54.2311H47.9407H47.8398V47.1157C47.8398 46.0795 47.8398 45.158 47.8674 44.3648L48.9402 42.6822C49.0604 42.4698 49.1952 42.266 49.3437 42.0724C49.3238 42.1338 49.2961 42.1923 49.2611 42.2466L48.9998 42.7051L48.0095 44.3969V44.3556C48.0095 45.135 48.0095 46.0566 48.0324 47.1065L47.9315 47.0056H54.2219H55.6294L55.5102 47.1248C55.5102 46.0703 55.5102 45.0617 55.5102 44.1355L55.5331 44.1997L54.0202 42.1595L54.0981 42.1962L50.6412 42.1503H49.6783C49.5647 42.1344 49.4527 42.1083 49.3437 42.0724Z" fill="#263238"/>
<path id="Vector_48" d="M55.6483 44.2637C55.4314 44.322 55.2081 44.3528 54.9835 44.3553C54.5617 44.392 53.9565 44.4333 53.2367 44.4791L53.333 44.3783C53.3155 44.7614 53.19 45.1318 52.9708 45.4465C52.8511 45.6194 52.6945 45.7635 52.5123 45.8683C52.3107 45.9616 52.0924 46.013 51.8704 46.0196C51.6341 46.0294 51.3985 45.9868 51.1805 45.8949C50.9625 45.8029 50.7676 45.6639 50.6096 45.4878C50.3467 45.173 50.1698 44.7955 50.0961 44.392L50.197 44.4746C49.5276 44.4746 48.9682 44.4516 48.5785 44.4333C48.3731 44.4373 48.1681 44.4142 47.9688 44.3645C48.169 44.3213 48.3738 44.3028 48.5785 44.3095C48.9682 44.3095 49.5276 44.2774 50.197 44.2637H50.2612V44.3508C50.3391 44.7095 50.5045 45.0434 50.7426 45.3227C50.8779 45.4743 51.045 45.5941 51.2321 45.6734C51.4192 45.7526 51.6216 45.7895 51.8246 45.7812C52.0118 45.7805 52.1966 45.7382 52.3656 45.6574C52.5246 45.5752 52.6627 45.4576 52.769 45.3136C52.9637 45.036 53.0808 44.7116 53.1083 44.3737V44.2774H53.1954C53.9198 44.2545 54.525 44.2407 54.9514 44.2361C55.1839 44.2157 55.4181 44.225 55.6483 44.2637Z" fill="#263238"/>
<path id="Vector_49" d="M72.8858 42.3243C73.0136 42.2954 73.1446 42.2831 73.2755 42.2876V42.361C72.3585 42.4068 69.5206 42.4435 66.192 42.4435C64.1288 42.4435 62.2582 42.4435 60.9057 42.4068L59.3056 42.3701C59.1089 42.3767 58.9121 42.3614 58.7188 42.3243C58.9121 42.2872 59.1089 42.2718 59.3056 42.2784L60.9057 42.2418C62.2582 42.2188 64.1151 42.2051 66.192 42.2051C69.5206 42.2051 72.3402 42.2418 73.2755 42.2876V42.361C73.1445 42.3685 73.0131 42.3561 72.8858 42.3243Z" fill="#263238"/>
<path id="Vector_50" d="M72.8858 45.3272C73.0131 45.2954 73.1445 45.283 73.2755 45.2905V45.3639C72.3585 45.4097 69.5206 45.4464 66.192 45.4464C64.1288 45.4464 62.2582 45.4464 60.9057 45.4097L59.3056 45.3731C59.109 45.3767 58.9124 45.3614 58.7188 45.3272C58.912 45.2897 59.1088 45.2728 59.3056 45.2768L60.9057 45.2401C62.2582 45.2401 64.1151 45.208 66.192 45.208C69.5206 45.208 72.3402 45.2401 73.2755 45.2905V45.3639C73.1447 45.3654 73.0141 45.3531 72.8858 45.3272Z" fill="#263238"/>
<path id="Vector_51" d="M72.8858 48.3262C73.0136 48.2974 73.1446 48.2851 73.2755 48.2896V48.3629C72.3585 48.4133 69.5206 48.4454 66.192 48.4454C64.1288 48.4454 62.2582 48.4454 60.9057 48.4133L59.3056 48.3721C59.1089 48.3787 58.9121 48.3633 58.7188 48.3262C58.9124 48.2921 59.109 48.2767 59.3056 48.2804L60.9057 48.2437C62.2582 48.2208 64.1151 48.207 66.192 48.207C69.5206 48.207 72.3402 48.2437 73.2755 48.2896V48.3629C73.1445 48.3705 73.0131 48.3581 72.8858 48.3262Z" fill="#263238"/>
<path id="Vector_52" d="M49.3437 63.5611C49.4508 63.5396 49.56 63.5304 49.6692 63.5336L50.6228 63.5107L54.1164 63.4648H54.1623L54.1898 63.5015L55.7303 65.528L55.7532 65.5601V65.5968C55.7532 66.5137 55.7532 67.5316 55.7532 68.5861V68.7053H54.2311H47.9407H47.8398V68.6044C47.8398 67.5682 47.8398 66.6467 47.8674 65.8535V65.8306L48.9402 64.148C49.0575 63.9502 49.1877 63.7602 49.3299 63.5795C49.31 63.6409 49.2823 63.6994 49.2474 63.7537L48.986 64.2122L48.0141 65.9131V65.8719C48.0141 66.6513 48.0141 67.5728 48.037 68.6228L47.9361 68.5219H54.2265H55.634L55.5148 68.6411C55.5148 67.5866 55.5148 66.5779 55.5148 65.6518L55.5377 65.716L54.0248 63.6757L54.1027 63.7124L50.6457 63.6666H49.6829C49.5668 63.642 49.4533 63.6067 49.3437 63.5611Z" fill="#263238"/>
<path id="Vector_53" d="M55.6483 65.7383C55.4314 65.7967 55.2081 65.8275 54.9835 65.83C54.5617 65.8667 53.9565 65.908 53.2367 65.9538L53.333 65.853C53.3155 66.2361 53.19 66.6065 52.9708 66.9212C52.8511 67.0941 52.6945 67.2382 52.5123 67.343C52.3107 67.4362 52.0924 67.4877 51.8704 67.4943C51.6341 67.5041 51.3985 67.4615 51.1805 67.3695C50.9625 67.2776 50.7676 67.1386 50.6096 66.9625C50.3467 66.6477 50.1698 66.2702 50.0961 65.8667L50.197 65.9492C49.5276 65.9492 48.9682 65.9263 48.5785 65.908C48.3735 65.915 48.1685 65.895 47.9688 65.8484C48.169 65.8047 48.3736 65.7847 48.5785 65.7888L50.197 65.7475H50.2612V65.8346C50.3391 66.1933 50.5045 66.5272 50.7426 66.8066C50.8779 66.9582 51.045 67.0779 51.2321 67.1572C51.4192 67.2365 51.6216 67.2733 51.8246 67.2651C52.0118 67.2644 52.1966 67.2221 52.3656 67.1413C52.5246 67.0591 52.6627 66.9414 52.769 66.7974C52.9637 66.5199 53.0808 66.1954 53.1083 65.8575V65.7613H53.1954C53.9198 65.7613 54.525 65.7246 54.9514 65.72C55.1835 65.6965 55.4177 65.7027 55.6483 65.7383Z" fill="#263238"/>
<path id="Vector_54" d="M72.8858 63.7999C73.0136 63.771 73.1446 63.7587 73.2755 63.7632V63.8365C72.3585 63.8824 69.5206 63.9191 66.192 63.9191C64.1288 63.9191 62.2582 63.9191 60.9057 63.8824L59.3056 63.8457C59.1089 63.8523 58.9121 63.8369 58.7188 63.7999C58.9121 63.7628 59.1089 63.7474 59.3056 63.754L60.9057 63.7173C62.2582 63.6944 64.1151 63.6807 66.192 63.6807C69.5206 63.6807 72.3402 63.7173 73.2755 63.7632V63.8365C73.1446 63.841 73.0136 63.8287 72.8858 63.7999Z" fill="#263238"/>
<path id="Vector_55" d="M72.8858 66.8022C73.0131 66.7703 73.1445 66.758 73.2755 66.7655V66.8297C72.3585 66.8756 69.5206 66.9122 66.192 66.9122C64.1288 66.9122 62.2582 66.9122 60.9057 66.8756L59.3056 66.8389C59.109 66.8425 58.9124 66.8272 58.7188 66.793C58.912 66.7555 59.1088 66.7386 59.3056 66.7426L60.9057 66.7059C62.2582 66.683 64.1151 66.6738 66.192 66.6738C69.5206 66.6738 72.3402 66.7059 73.2755 66.7564V66.8297C73.145 66.8342 73.0144 66.825 72.8858 66.8022Z" fill="#263238"/>
<path id="Vector_56" d="M72.8858 69.8018C73.0136 69.773 73.1446 69.7606 73.2755 69.7651V69.8385C72.3585 69.8889 69.5206 69.921 66.192 69.921C64.1288 69.921 62.2582 69.921 60.9057 69.8889L59.3056 69.8477C59.1089 69.8543 58.9121 69.8389 58.7188 69.8018C58.9124 69.7677 59.109 69.7523 59.3056 69.756L60.9057 69.7193C62.2582 69.6964 64.1151 69.6826 66.192 69.6826C69.5206 69.6826 72.3402 69.7193 73.2755 69.7651V69.8385C73.1445 69.8461 73.0131 69.8337 72.8858 69.8018Z" fill="#263238"/>
<path id="Vector_57" d="M49.3437 85.0362C49.4508 85.0147 49.56 85.0055 49.6692 85.0087L50.6228 84.9858L54.1164 84.9399H54.1623L54.1898 84.9766L55.7303 87.0031L55.7532 87.0352V87.0719C55.7532 87.9888 55.7532 89.0067 55.7532 90.0612V90.1804H54.2311H47.9407H47.8398V90.0795C47.8398 89.0433 47.8398 88.1218 47.8674 87.3286L48.9402 85.646C49.0575 85.4482 49.1877 85.2583 49.3299 85.0775C49.31 85.1389 49.2823 85.1974 49.2474 85.2517L48.986 85.7102L47.9957 87.402V87.3607C47.9957 88.1401 47.9957 89.0617 48.0187 90.1116L47.9178 90.0107H54.2081H55.6157L55.4965 90.1299C55.4965 89.0754 55.4965 88.0668 55.4965 87.1406L55.5194 87.2048L54.0064 85.1646L54.0843 85.2013L50.6274 85.1554H49.6646C49.5543 85.1253 49.4469 85.0854 49.3437 85.0362Z" fill="#263238"/>
<path id="Vector_58" d="M55.6483 87.2144C55.4314 87.2728 55.2081 87.3036 54.9835 87.3061C54.5617 87.3428 53.9565 87.384 53.2367 87.4299L53.333 87.329C53.3155 87.7122 53.19 88.0825 52.9708 88.3973C52.8511 88.5702 52.6945 88.7143 52.5123 88.8191C52.3112 88.913 52.0924 88.963 51.8704 88.9658C51.6342 88.9774 51.3985 88.9361 51.1803 88.8449C50.9622 88.7537 50.7672 88.6149 50.6096 88.4386C50.3467 88.1238 50.1698 87.7463 50.0961 87.3428L50.197 87.4253C49.5276 87.4253 48.9682 87.4253 48.5785 87.3841C48.3735 87.3911 48.1685 87.371 47.9688 87.3244C48.169 87.2807 48.3736 87.2607 48.5785 87.2649L50.197 87.2236H50.2612V87.3107C50.3391 87.6694 50.5045 88.0033 50.7426 88.2827C50.8779 88.4343 51.045 88.554 51.2321 88.6333C51.4192 88.7126 51.6216 88.7494 51.8246 88.7412C52.0118 88.7404 52.1966 88.6982 52.3656 88.6174C52.5246 88.5352 52.6627 88.4175 52.769 88.2735C52.9637 87.9959 53.0808 87.6715 53.1083 87.3336V87.2373H53.1954C53.9198 87.2098 54.525 87.2007 54.9514 87.1961C55.1835 87.1726 55.4177 87.1788 55.6483 87.2144Z" fill="#263238"/>
<path id="Vector_59" d="M72.8858 85.2745C73.0136 85.2456 73.1446 85.2333 73.2755 85.2378V85.3112C72.3585 85.357 69.5206 85.3937 66.192 85.3937C64.1288 85.3937 62.2582 85.3937 60.9057 85.357L59.3056 85.3203C59.1089 85.3269 58.9121 85.3115 58.7188 85.2745C58.9121 85.2374 59.1089 85.222 59.3056 85.2286L60.9057 85.192C62.2582 85.169 64.1151 85.1553 66.192 85.1553C69.5206 85.1553 72.3402 85.1919 73.2755 85.2378V85.3112C73.1446 85.3157 73.0136 85.3033 72.8858 85.2745Z" fill="#263238"/>
<path id="Vector_60" d="M72.8858 88.2779C73.0131 88.246 73.1445 88.2337 73.2755 88.2412V88.3146C72.3585 88.3604 69.5206 88.3971 66.192 88.3971C64.1288 88.3971 62.2582 88.3971 60.9057 88.3604L59.3056 88.3237C59.109 88.3274 58.9124 88.312 58.7188 88.2779C58.912 88.2404 59.1088 88.2235 59.3056 88.2275L60.9057 88.1908C62.2582 88.1679 64.1151 88.1587 66.192 88.1587C69.5206 88.1587 72.3402 88.1908 73.2755 88.2412V88.3146C73.1447 88.316 73.0141 88.3037 72.8858 88.2779Z" fill="#263238"/>
<path id="Vector_61" d="M72.8858 91.2759C73.0136 91.2471 73.1446 91.2348 73.2755 91.2393V91.3126C72.3585 91.3631 69.5206 91.3952 66.192 91.3952C64.1288 91.3952 62.2582 91.3951 60.9057 91.3631L59.3056 91.3218C59.1089 91.3284 58.9121 91.313 58.7188 91.2759C58.9124 91.2418 59.109 91.2264 59.3056 91.2301L60.9057 91.1934C62.2582 91.1934 64.1151 91.1567 66.192 91.1567C69.5206 91.1567 72.3402 91.1934 73.2755 91.2393V91.3126C73.1445 91.3202 73.0131 91.3078 72.8858 91.2759Z" fill="#263238"/>
<path id="Vector_62" d="M164.021 71.2089H160.527C160.345 71.2119 160.163 71.1786 159.994 71.1108C159.824 71.0431 159.67 70.9422 159.54 70.8142C159.41 70.6862 159.306 70.5335 159.236 70.3652C159.165 70.1968 159.129 70.016 159.129 69.8334V64.0107H159.587V69.8151C159.587 69.9375 159.612 70.0586 159.659 70.1714C159.707 70.2842 159.776 70.3863 159.864 70.4717C159.952 70.5572 160.055 70.6243 160.169 70.669C160.283 70.7137 160.405 70.7351 160.527 70.7321H164.021C164.264 70.7321 164.497 70.6355 164.669 70.4635C164.841 70.2915 164.938 70.0583 164.938 69.8151V64.2125H165.396V69.8151C165.399 69.9973 165.365 70.1781 165.297 70.3471C165.229 70.5161 165.128 70.6699 165 70.7996C164.872 70.9292 164.72 71.0322 164.552 71.1025C164.383 71.1727 164.203 71.2089 164.021 71.2089Z" fill="#333333"/>
<path id="Vector_63" d="M165.991 64.042H158.555V64.5005H165.991V64.042Z" fill="#333333"/>
<path id="Vector_64" d="M160.919 64.2716H160.461V63.7627C160.461 63.5195 160.558 63.2862 160.73 63.1143C160.901 62.9423 161.135 62.8457 161.378 62.8457H163.212C163.455 62.8457 163.688 62.9423 163.86 63.1143C164.032 63.2862 164.129 63.5195 164.129 63.7627V64.1707H163.67V63.7627C163.67 63.6411 163.622 63.5245 163.536 63.4385C163.45 63.3525 163.333 63.3042 163.212 63.3042H161.378C161.256 63.3042 161.14 63.3525 161.054 63.4385C160.968 63.5245 160.919 63.6411 160.919 63.7627V64.2716Z" fill="#333333"/>
<path id="Vector_65" d="M161.215 69.494C161.098 68.8439 161.058 68.1821 161.096 67.5225C161.058 66.8645 161.098 66.2043 161.215 65.5557C161.336 66.2039 161.376 66.8645 161.335 67.5225C161.376 68.1821 161.336 68.8442 161.215 69.494Z" fill="#333333"/>
<path id="Vector_66" d="M162.29 69.494C162.172 68.8439 162.132 68.1821 162.17 67.5225C162.132 66.8645 162.172 66.2043 162.29 65.5557C162.41 66.2039 162.45 66.8645 162.409 67.5225C162.45 68.1821 162.41 68.8442 162.29 69.494Z" fill="#333333"/>
<path id="Vector_67" d="M163.379 69.494C163.262 68.8439 163.222 68.1821 163.26 67.5225C163.222 66.8645 163.262 66.2043 163.379 65.5557C163.5 66.2039 163.54 66.8645 163.499 67.5225C163.54 68.1821 163.5 68.8442 163.379 69.494Z" fill="#333333"/>
<path id="Vector_68" d="M164.021 90.0064H160.527C160.157 90.0052 159.802 89.8575 159.54 89.5955C159.278 89.3336 159.13 88.9786 159.129 88.6081V82.8037H159.587V88.6081C159.587 88.8574 159.686 89.0964 159.863 89.2727C160.039 89.4489 160.278 89.548 160.527 89.548H164.021C164.266 89.542 164.499 89.4403 164.671 89.2647C164.842 89.0891 164.938 88.8534 164.938 88.6081V83.0054H165.396V88.6081C165.399 88.7906 165.366 88.9719 165.298 89.1415C165.231 89.311 165.13 89.4654 165.002 89.5955C164.874 89.7257 164.721 89.829 164.553 89.8996C164.384 89.9701 164.203 90.0065 164.021 90.0064Z" fill="#333333"/>
<path id="Vector_69" d="M165.991 82.8354H158.555V83.2939H165.991V82.8354Z" fill="#333333"/>
<path id="Vector_70" d="M160.919 83.065H160.461V82.5561C160.461 82.3129 160.558 82.0797 160.73 81.9077C160.901 81.7358 161.135 81.6392 161.378 81.6392H163.212C163.455 81.6392 163.688 81.7358 163.86 81.9077C164.032 82.0797 164.129 82.3129 164.129 82.5561V82.9642H163.67V82.5561C163.67 82.4345 163.622 82.3179 163.536 82.2319C163.45 82.1459 163.333 82.0976 163.212 82.0976H161.378C161.256 82.0976 161.14 82.1459 161.054 82.2319C160.968 82.3179 160.919 82.4345 160.919 82.5561V83.065Z" fill="#333333"/>
<path id="Vector_71" d="M161.213 88.287C161.054 86.979 161.054 85.6566 161.213 84.3486C161.372 85.6566 161.372 86.979 161.213 88.287Z" fill="#333333"/>
<path id="Vector_72" d="M162.291 88.287C162.132 86.979 162.132 85.6566 162.291 84.3486C162.45 85.6566 162.45 86.979 162.291 88.287Z" fill="#333333"/>
<path id="Vector_73" d="M163.377 88.287C163.218 86.979 163.218 85.6566 163.377 84.3486C163.536 85.6566 163.536 86.979 163.377 88.287Z" fill="#333333"/>
<path id="Vector_74" d="M164.021 131.32H160.527C160.345 131.323 160.163 131.29 159.994 131.222C159.824 131.154 159.67 131.053 159.54 130.925C159.41 130.797 159.306 130.645 159.236 130.476C159.165 130.308 159.129 130.127 159.129 129.945V124.14H159.587V129.945C159.587 130.067 159.612 130.188 159.659 130.301C159.707 130.414 159.776 130.516 159.864 130.601C159.952 130.687 160.055 130.754 160.169 130.798C160.283 130.843 160.405 130.865 160.527 130.861H164.021C164.264 130.861 164.497 130.765 164.669 130.593C164.841 130.421 164.938 130.188 164.938 129.945V124.324H165.396V129.926C165.399 130.108 165.365 130.289 165.297 130.458C165.229 130.627 165.128 130.781 165 130.911C164.872 131.04 164.72 131.143 164.552 131.214C164.383 131.284 164.203 131.32 164.021 131.32Z" fill="#333333"/>
<path id="Vector_75" d="M165.991 124.154H158.555V124.612H165.991V124.154Z" fill="#333333"/>
<path id="Vector_76" d="M160.919 124.383H160.461V123.87C160.461 123.626 160.558 123.393 160.73 123.221C160.901 123.049 161.135 122.953 161.378 122.953H163.212C163.455 122.953 163.688 123.049 163.86 123.221C164.032 123.393 164.129 123.626 164.129 123.87V124.282H163.67V123.87C163.67 123.748 163.622 123.631 163.536 123.545C163.45 123.459 163.333 123.411 163.212 123.411H161.378C161.256 123.411 161.14 123.459 161.054 123.545C160.968 123.631 160.919 123.748 160.919 123.87V124.383Z" fill="#333333"/>
<path id="Vector_77" d="M161.213 129.605C161.054 128.297 161.054 126.975 161.213 125.667C161.372 126.975 161.372 128.297 161.213 129.605Z" fill="#333333"/>
<path id="Vector_78" d="M162.291 129.605C162.132 128.297 162.132 126.975 162.291 125.667C162.45 126.975 162.45 128.297 162.291 129.605Z" fill="#333333"/>
<path id="Vector_79" d="M163.377 129.605C163.218 128.297 163.218 126.975 163.377 125.667C163.536 126.975 163.536 128.297 163.377 129.605Z" fill="#333333"/>
<path id="Vector_80" d="M165.918 49.5456C165.901 49.404 165.894 49.2616 165.895 49.1192C165.895 48.8211 165.895 48.436 165.895 47.95C165.895 46.9276 165.863 45.5063 165.845 43.787L165.941 43.8833L157.546 43.9062L157.665 43.787V45.2954C157.665 45.7952 157.665 46.2858 157.665 46.7672C157.665 47.73 157.665 48.6561 157.665 49.518L157.555 49.408L163.561 49.463L165.299 49.4905H165.758H165.927C165.73 49.5007 165.533 49.5007 165.336 49.4905L163.626 49.5226L157.546 49.5776H157.436V49.4676C157.436 48.5919 157.436 47.6658 157.436 46.7167V43.7366C157.331 43.8421 157.583 43.5899 157.555 43.6128L165.936 43.6403H166.033V43.732C166.033 45.4742 165.996 46.9185 165.987 47.9546C165.987 48.4131 165.987 48.812 165.959 49.1008C165.957 49.2499 165.943 49.3985 165.918 49.5456Z" fill="#263238"/>
<path id="Vector_81" d="M165.917 43.7871C165.833 43.913 165.733 44.0271 165.619 44.1264C165.412 44.3327 165.114 44.6261 164.743 44.9837C164 45.699 162.964 46.671 161.804 47.7346H161.639L161.612 47.7071L161.561 47.6567L161.451 47.5604L161.24 47.3633L160.823 46.9781L160.044 46.2491L158.728 45.0021C158.356 44.6445 158.058 44.351 157.857 44.1447C157.743 44.0454 157.642 43.9313 157.559 43.8054C157.689 43.8822 157.81 43.9729 157.921 44.0759C158.141 44.2639 158.457 44.5344 158.838 44.8783L160.186 46.0841L160.979 46.8039L161.396 47.189L161.607 47.3816L161.717 47.4825L161.772 47.5329H161.8C161.726 47.5329 161.965 47.5329 161.639 47.5329C162.794 46.4646 163.854 45.511 164.624 44.8279C165.013 44.484 165.33 44.2135 165.541 44.0255C165.655 43.9303 165.782 43.8502 165.917 43.7871Z" fill="#263238"/>
<path id="Vector_82" d="M160.329 46.3633C159.951 46.9644 159.51 47.5237 159.013 48.0322C158.576 48.5961 158.077 49.1083 157.523 49.5589C157.895 48.9499 158.335 48.3853 158.835 47.8763C159.274 47.3168 159.775 46.8091 160.329 46.3633Z" fill="#263238"/>
<path id="Vector_83" d="M165.967 49.6091C165.428 49.1262 164.942 48.5867 164.519 47.9998C164.036 47.4605 163.613 46.8702 163.258 46.2393C163.797 46.7221 164.283 47.2617 164.707 47.8485C165.191 48.3864 165.614 48.977 165.967 49.6091Z" fill="#263238"/>
<path id="Vector_84" d="M170.772 37.4278C170.772 37.492 150.774 37.547 126.107 37.547C101.441 37.547 81.4375 37.4874 81.4375 37.4278C81.4375 37.3682 101.432 37.3086 126.103 37.3086C150.774 37.3086 170.772 37.3636 170.772 37.4278Z" fill="#263238"/>
<path id="Vector_85" d="M170.772 57.3389C170.772 57.4031 150.774 57.4581 126.107 57.4581C101.441 57.4581 81.4375 57.4031 81.4375 57.3389C81.4375 57.2747 101.432 57.2197 126.103 57.2197C150.774 57.2197 170.772 57.2702 170.772 57.3389Z" fill="#263238"/>
<path id="Vector_86" d="M170.772 96.7506C170.772 96.8147 150.774 96.8698 126.107 96.8698C101.441 96.8698 81.4375 96.8147 81.4375 96.7506C81.4375 96.6864 101.432 96.6313 126.103 96.6313C150.774 96.6313 170.772 96.6818 170.772 96.7506Z" fill="#263238"/>
<path id="Vector_87" d="M170.772 116.924C170.772 116.993 150.773 117.043 126.107 117.043C101.44 117.043 81.4414 116.993 81.4414 116.924C81.4414 116.855 101.436 116.805 126.107 116.805C150.777 116.805 170.772 116.86 170.772 116.924Z" fill="#263238"/>
<path id="Vector_88" d="M93.0284 51.2415C93.0284 51.2415 93.1293 51.2415 93.3035 51.1773C93.5559 51.0972 93.7667 50.921 93.8903 50.6868C94.0692 50.3887 93.9775 49.944 93.9912 49.4397C94.005 48.9354 93.9912 48.3623 93.9912 47.7342C93.9912 47.106 93.9912 46.4046 93.9912 45.6664C93.9912 45.4784 93.9912 45.2904 93.9912 45.0979C94.007 44.9147 93.9915 44.7302 93.9454 44.5523C93.8876 44.3772 93.7783 44.2237 93.6319 44.1116C93.4855 43.9996 93.3088 43.9342 93.1247 43.9242H87.655C87.4425 43.9258 87.2371 44.0012 87.074 44.1376C86.9109 44.2739 86.8003 44.4626 86.761 44.6715C86.7289 45.0933 86.761 45.5885 86.761 46.0469C86.761 46.9639 86.761 47.835 86.761 48.674C86.761 49.0912 86.761 49.4993 86.761 49.8982C86.7486 50.0835 86.7578 50.2697 86.7885 50.4529C86.8277 50.6265 86.9151 50.7854 87.0406 50.9114C87.1616 51.0264 87.31 51.1085 87.4716 51.1498C87.6366 51.1779 87.8043 51.1871 87.9714 51.1773H88.9663L91.9601 51.214L92.7762 51.2369C92.8715 51.2347 92.9668 51.2424 93.0605 51.2599C92.9662 51.2727 92.8705 51.2727 92.7762 51.2599L91.9601 51.2828L88.9663 51.324H87.9714C87.7891 51.337 87.6058 51.3278 87.4258 51.2965C87.2254 51.2513 87.0414 51.1516 86.8941 51.0084C86.7469 50.8652 86.6421 50.6841 86.5913 50.485C86.5524 50.2858 86.54 50.0823 86.5547 49.8798C86.5547 49.481 86.5547 49.0729 86.5547 48.6557C86.5547 47.8167 86.5547 46.941 86.5547 46.0286V45.3409C86.5391 45.1012 86.5391 44.8607 86.5547 44.6211C86.6085 44.3618 86.75 44.129 86.9555 43.962C87.1609 43.7949 87.4177 43.7039 87.6825 43.7041H93.1293C93.355 43.7199 93.571 43.8024 93.7498 43.9411C93.9286 44.0799 94.0621 44.2687 94.1333 44.4835C94.1862 44.6837 94.2048 44.8915 94.1884 45.0979C94.1884 45.2904 94.1884 45.4784 94.1884 45.6664C94.1884 46.4046 94.1884 47.0969 94.1884 47.7342C94.1884 48.3714 94.1884 48.9354 94.1884 49.4397C94.1884 49.6919 94.1884 49.9257 94.1884 50.1412C94.1942 50.3474 94.1452 50.5515 94.0462 50.7326C93.9017 50.9778 93.666 51.1558 93.3906 51.2278C93.2735 51.2658 93.1481 51.2706 93.0284 51.2415Z" fill="#263238"/>
<path id="Vector_89" d="M93.0284 110.739C93.0284 110.739 93.1293 110.739 93.3035 110.675C93.5559 110.594 93.7667 110.418 93.8903 110.184C94.0692 109.886 93.9775 109.441 93.9912 108.937C94.005 108.433 93.9912 107.86 93.9912 107.231C93.9912 106.603 93.9912 105.902 93.9912 105.164C93.9912 104.976 93.9912 104.788 93.9912 104.595C94.007 104.412 93.9915 104.227 93.9454 104.05C93.8876 103.874 93.7783 103.721 93.6319 103.609C93.4855 103.497 93.3088 103.431 93.1247 103.421H87.655C87.4431 103.423 87.2383 103.498 87.0753 103.633C86.9123 103.768 86.8012 103.956 86.761 104.164C86.7289 104.591 86.761 105.081 86.761 105.54C86.761 106.457 86.761 107.328 86.761 108.167C86.761 108.584 86.761 108.992 86.761 109.386C86.7485 109.573 86.7577 109.761 86.7885 109.946C86.8262 110.12 86.9138 110.279 87.0406 110.404C87.1599 110.521 87.3089 110.604 87.4716 110.642C87.6362 110.674 87.8041 110.685 87.9714 110.675H88.9663L91.9601 110.711L92.7762 110.734C92.8707 110.724 92.966 110.724 93.0605 110.734C92.9672 110.755 92.8716 110.762 92.7762 110.757L91.9601 110.78L88.9663 110.817H87.9714C87.7891 110.83 87.6058 110.82 87.4258 110.789C87.2254 110.744 87.0414 110.644 86.8941 110.501C86.7469 110.358 86.6421 110.177 86.5913 109.978C86.552 109.777 86.5396 109.572 86.5547 109.368C86.5547 108.974 86.5547 108.566 86.5547 108.148C86.5547 107.309 86.5547 106.434 86.5547 105.521V104.834C86.5391 104.594 86.5391 104.353 86.5547 104.114C86.6038 103.85 86.7433 103.612 86.9492 103.441C87.1551 103.269 87.4145 103.175 87.6825 103.174H93.1293C93.355 103.19 93.571 103.272 93.7498 103.411C93.9286 103.55 94.0621 103.738 94.1333 103.953C94.1862 104.153 94.2048 104.361 94.1884 104.568C94.1884 104.76 94.1884 104.948 94.1884 105.136C94.1884 105.874 94.1884 106.567 94.1884 107.204C94.1884 107.841 94.1884 108.405 94.1884 108.909C94.1884 109.162 94.1884 109.395 94.1884 109.611C94.1942 109.817 94.1452 110.021 94.0462 110.202C93.9754 110.324 93.8808 110.43 93.7682 110.514C93.6556 110.598 93.5272 110.659 93.3906 110.693C93.2757 110.739 93.1511 110.754 93.0284 110.739Z" fill="#263238"/>
<path id="Vector_90" d="M80.7773 134.226C80.7773 134.226 80.7773 134.13 80.7773 133.947C80.7773 133.763 80.7773 133.488 80.7773 133.126C80.7773 132.393 80.7773 131.329 80.7773 129.967C80.7773 127.216 80.7773 123.25 80.7773 118.354C80.7773 108.552 80.8965 95.008 81.0341 80.0478C81.1716 65.0876 81.2771 51.5486 81.3642 41.7372C81.3963 36.8406 81.4192 32.8747 81.4376 30.1238C81.4376 28.7484 81.4376 27.6985 81.4651 26.9695C81.4651 26.6119 81.4651 26.3414 81.4651 26.1488C81.4651 25.9562 81.4651 25.8691 81.4651 25.8691C81.4651 25.8691 81.4651 25.9608 81.4651 26.1488C81.4651 26.3368 81.4651 26.6073 81.4651 26.9695C81.4651 27.6985 81.4651 28.7622 81.4651 30.1238C81.4651 32.8747 81.4651 36.8406 81.4651 41.7372C81.4421 51.5395 81.3459 65.0876 81.2037 80.0478C81.0616 95.008 80.9607 108.542 80.8782 118.354C80.8461 123.25 80.8232 127.216 80.8049 129.967C80.8049 131.343 80.8049 132.393 80.7773 133.126C80.7773 133.479 80.7773 133.75 80.7773 133.947C80.7773 134.144 80.7773 134.226 80.7773 134.226Z" fill="#263238"/>
<path id="Vector_91" d="M131.828 65.3253C131.828 65.3894 124.951 65.4445 116.441 65.4445C107.932 65.4445 101.055 65.3894 101.055 65.3253C101.055 65.2611 107.932 65.2061 116.441 65.2061C124.951 65.2061 131.828 65.2565 131.828 65.3253Z" fill="#263238"/>
<path id="Vector_92" d="M151.061 68.7188C151.061 68.7876 139.865 68.838 126.06 68.838C112.255 68.838 101.055 68.7876 101.055 68.7188C101.055 68.65 112.251 68.5996 126.06 68.5996C139.87 68.5996 151.061 68.6638 151.061 68.7188Z" fill="#263238"/>
<path id="Vector_93" d="M131.828 105.264C131.828 105.328 124.951 105.383 116.441 105.383C107.932 105.383 101.055 105.328 101.055 105.264C101.055 105.2 107.932 105.145 116.441 105.145C124.951 105.145 131.828 105.195 131.828 105.264Z" fill="#263238"/>
<path id="Vector_94" d="M151.061 108.657C151.061 108.721 139.865 108.776 126.06 108.776C112.255 108.776 101.055 108.721 101.055 108.657C101.055 108.593 112.251 108.538 126.06 108.538C139.87 108.538 151.061 108.593 151.061 108.657Z" fill="#263238"/>
<path id="Vector_95" d="M131.828 46.1339C131.828 46.2026 124.951 46.2576 116.441 46.2576C107.932 46.2576 101.055 46.2026 101.055 46.1339C101.055 46.0651 107.932 46.0146 116.441 46.0146C124.951 46.0146 131.828 46.0697 131.828 46.1339Z" fill="#263238"/>
<path id="Vector_96" d="M151.061 49.5313C151.061 49.5955 139.865 49.6505 126.06 49.6505C112.255 49.6505 101.055 49.5955 101.055 49.5313C101.055 49.4671 112.251 49.4121 126.06 49.4121C139.87 49.4121 151.061 49.4671 151.061 49.5313Z" fill="#263238"/>
<path id="Vector_97" d="M131.828 84.8941C131.828 84.9583 124.951 85.0133 116.441 85.0133C107.932 85.0133 101.055 84.9583 101.055 84.8941C101.055 84.8299 107.932 84.7749 116.441 84.7749C124.951 84.7749 131.828 84.8299 131.828 84.8941Z" fill="#263238"/>
<path id="Vector_98" d="M151.061 88.2872C151.061 88.356 139.865 88.4064 126.06 88.4064C112.255 88.4064 101.055 88.356 101.055 88.2872C101.055 88.2184 112.251 88.168 126.06 88.168C139.87 88.168 151.061 88.223 151.061 88.2872Z" fill="#263238"/>
<path id="Vector_99" d="M131.828 124.213C131.828 124.278 124.951 124.333 116.441 124.333C107.932 124.333 101.055 124.278 101.055 124.213C101.055 124.149 107.932 124.094 116.441 124.094C124.951 124.094 131.828 124.14 131.828 124.213Z" fill="#263238"/>
<path id="Vector_100" d="M151.061 127.607C151.061 127.671 139.865 127.726 126.06 127.726C112.255 127.726 101.055 127.671 101.055 127.607C101.055 127.542 112.251 127.487 126.06 127.487C139.87 127.487 151.061 127.542 151.061 127.607Z" fill="#263238"/>
<path id="Vector_101" d="M166.748 28.3496H160.691V34.4061H166.748V28.3496Z" fill="#E0E0E0"/>
<path id="Vector_102" d="M156.885 28.3496H150.828V34.4061H156.885V28.3496Z" fill="#E0E0E0"/>
<path id="Vector_103" d="M147.025 28.3496H140.969V34.4061H147.025V28.3496Z" fill="#E0E0E0"/>
<path id="Vector_104" d="M37.0977 44.208L39.6697 47.5641L41.8704 44.208H37.0977Z" fill="#263238"/>
</g>
<g id="Character">
<path id="Vector_105" d="M31.5252 87.7417C37.4854 79.8742 43.7941 80.9837 48.1634 82.8864C50.3427 83.8792 52.1751 85.5011 53.4252 87.5437C54.6752 89.5863 55.2857 91.9561 55.1782 94.3484C55.1048 95.6046 54.8343 96.9251 55.3478 98.0758C56.1685 99.9098 58.5572 100.446 59.9326 101.923C61.8262 103.944 61.4089 107.14 60.7671 109.836C60.1252 112.532 59.4558 115.604 61.0376 117.873C62.491 119.95 65.2556 120.509 67.5388 121.619C69.0538 122.342 70.3989 123.377 71.486 124.656C72.5732 125.936 73.3779 127.43 73.8475 129.042C74.2911 130.663 74.326 132.37 73.9492 134.008C73.5724 135.647 72.7955 137.166 71.6881 138.431C69.469 140.843 66.1405 141.916 62.899 142.393C58.1595 143.092 53.3238 142.731 48.7407 141.336C44.1575 139.941 39.941 137.546 36.3952 134.324C32.8494 131.102 30.0626 127.134 28.2358 122.705C26.4089 118.276 25.5876 113.497 25.8308 108.713" fill="#263238"/>
<path id="Vector_106" d="M48.4773 83.2207C47.768 83.2167 47.059 83.2565 46.3546 83.3399C44.6703 83.6666 43.0191 84.1454 41.4213 84.7703C39.5186 85.4351 37.6801 85.8065 36.3414 85.7194C35.8148 85.7 35.2928 85.6152 34.7871 85.4672C34.5979 85.4201 34.4159 85.3476 34.2461 85.2517C34.934 85.4232 35.6376 85.5246 36.3459 85.5543C38.0584 85.5037 39.7498 85.1627 41.348 84.5457C43.2415 83.8809 45.0158 83.3078 46.3316 83.1702C46.8549 83.1067 47.383 83.0929 47.9088 83.129C48.1015 83.1342 48.2927 83.1651 48.4773 83.2207Z" fill="#455A64"/>
<path id="Vector_107" d="M62.2133 145.799C62.4425 146.487 67.197 168.952 67.197 168.952L103.367 182.858L101.331 188.135L70.3192 185.407C52.2184 182.707 51.2144 173.826 52.3055 163.9L54.1807 146.885L62.2133 145.799Z" fill="#FFBE9D"/>
<path id="Vector_108" d="M10.2266 133.686C13.954 128.042 19.6117 124.787 24.7925 122.985L43.8194 124.361C45.9471 124.177 48.0892 124.465 50.0928 125.204C52.0963 125.943 53.9119 127.116 55.4098 128.638L57.1796 175.784L61.5489 188.163H16.2831L10.2266 133.686Z" fill="#333333"/>
<path id="Vector_109" d="M56.1034 147.981C56.1034 147.981 56.0622 147.958 55.9934 147.908L55.6862 147.679C55.5263 147.546 55.3594 147.422 55.1865 147.307L54.4758 146.849C54.1916 146.698 53.8798 146.528 53.5359 146.358C52.2202 145.756 50.8103 145.385 49.3683 145.262C48.132 145.154 46.8864 145.231 45.673 145.492C44.2795 145.784 42.955 146.342 41.7713 147.133C40.4373 147.965 39.371 149.164 38.6995 150.585C38.3639 151.335 38.2204 152.156 38.2823 152.974C38.3639 153.817 38.6818 154.619 39.1992 155.289C39.7061 155.962 40.457 156.408 41.2899 156.532C41.6821 156.604 42.0867 156.558 42.453 156.401C42.8193 156.243 43.1308 155.981 43.3485 155.647C43.5185 155.298 43.6099 154.916 43.6162 154.528C43.6226 154.14 43.5437 153.755 43.3852 153.4C43.2509 153.042 43.069 152.702 42.8442 152.392C42.6185 152.092 42.3636 151.816 42.0831 151.567C41.016 150.625 39.7216 149.979 38.3281 149.691C37.1155 149.424 35.8676 149.354 34.6328 149.485C32.8374 149.704 31.072 150.122 29.3694 150.732L27.971 151.191L27.6088 151.31C27.5683 151.328 27.5248 151.339 27.4805 151.342L27.5997 151.287L27.9573 151.145C28.2691 151.026 28.7367 150.847 29.3327 150.631C31.0308 149.987 32.799 149.545 34.6007 149.315C35.8538 149.173 37.1217 149.233 38.3556 149.494C39.7841 149.786 41.1126 150.443 42.2115 151.402C42.3582 151.53 42.4957 151.667 42.6287 151.81C42.7664 151.953 42.8936 152.106 43.0092 152.268C43.2456 152.593 43.4383 152.947 43.5823 153.323C43.7531 153.71 43.8372 154.129 43.8284 154.552C43.8197 154.975 43.7185 155.391 43.5319 155.771C43.3076 156.155 42.9603 156.452 42.5461 156.614C42.1324 156.776 41.6843 156.83 41.2441 156.77C40.3474 156.642 39.538 156.164 38.9929 155.441C38.4515 154.734 38.1224 153.888 38.0439 153.002C37.9824 152.142 38.1402 151.281 38.5023 150.498C39.1925 149.036 40.2913 147.805 41.6659 146.954C42.8772 146.155 44.2292 145.594 45.6501 145.299C46.8831 145.045 48.1472 144.977 49.4004 145.097C50.4339 145.188 51.4512 145.413 52.4264 145.767C52.8256 145.91 53.2174 146.074 53.6001 146.257C53.9486 146.436 54.2603 146.615 54.5171 146.771L55.2231 147.252C55.3932 147.375 55.5569 147.507 55.7137 147.647L56.0026 147.894L56.1034 147.981Z" fill="#FAFAFA"/>
<path id="Vector_110" d="M55.4084 128.615L66.6412 148.816L54.1797 152.644L55.4084 128.615Z" fill="#333333"/>
<path id="Vector_111" d="M56.9189 175.917C56.8968 175.8 56.8846 175.682 56.8822 175.564C56.8822 175.312 56.8501 174.977 56.8226 174.555C56.7814 173.638 56.7263 172.382 56.653 170.823C56.5246 167.678 56.3641 163.327 56.222 158.522C56.0799 153.717 55.9928 149.352 55.9653 146.207C55.9653 144.63 55.9653 143.355 55.9653 142.475C55.9653 142.053 55.9653 141.714 55.9653 141.462C55.9629 141.344 55.9706 141.226 55.9882 141.109C56.0093 141.225 56.0185 141.344 56.0157 141.462L56.0432 142.475C56.0432 143.392 56.0891 144.648 56.1257 146.203C56.2083 149.375 56.3229 153.717 56.4513 158.513C56.5796 163.309 56.7218 167.646 56.8135 170.818C56.8501 172.373 56.8822 173.643 56.9051 174.55C56.9051 174.972 56.9051 175.312 56.9051 175.564C56.9218 175.681 56.9264 175.799 56.9189 175.917Z" fill="#263238"/>
<path id="Vector_112" d="M58.7224 134.768C58.6445 134.838 58.5582 134.898 58.4657 134.947C58.2123 135.107 57.9489 135.251 57.6771 135.378C56.4072 135.936 55.018 136.167 53.6359 136.051C52.2538 135.935 50.9227 135.475 49.7637 134.713C49.3582 134.459 48.9895 134.151 48.6679 133.796C48.3138 133.413 48.0781 132.935 47.9894 132.421C47.9393 132.152 47.9499 131.875 48.0205 131.611C48.0911 131.347 48.2199 131.102 48.3974 130.894C48.5942 130.689 48.841 130.539 49.1137 130.458C49.3863 130.378 49.6751 130.37 49.9517 130.436C50.227 130.487 50.4886 130.595 50.7199 130.753C50.9512 130.911 51.147 131.115 51.295 131.353C51.559 131.828 51.6451 132.382 51.538 132.916C51.4431 133.42 51.2241 133.893 50.9007 134.291C50.5899 134.668 50.2082 134.979 49.7775 135.208C48.9821 135.605 48.1187 135.848 47.2329 135.924C46.4716 136.01 45.7036 136.019 44.9405 135.951C43.8384 135.852 42.7569 135.591 41.7311 135.176C41.4524 135.064 41.18 134.937 40.915 134.796C40.8182 134.754 40.7272 134.7 40.6445 134.635C40.743 134.67 40.8394 134.709 40.9334 134.754C41.1214 134.837 41.3919 134.956 41.7632 135.089C42.7958 135.467 43.8759 135.7 44.9726 135.781C45.7245 135.837 46.48 135.819 47.2283 135.726C48.0861 135.645 48.9212 135.404 49.6904 135.016C50.0936 134.798 50.4516 134.506 50.7449 134.154C51.0403 133.783 51.2402 133.345 51.3271 132.879C51.4214 132.402 51.3434 131.906 51.1071 131.481C50.9776 131.271 50.8054 131.09 50.6016 130.951C50.3978 130.812 50.167 130.718 49.9242 130.674C49.6883 130.616 49.4413 130.62 49.2074 130.686C48.9735 130.752 48.7608 130.877 48.59 131.05C48.4364 131.232 48.3254 131.447 48.2652 131.678C48.2049 131.908 48.1968 132.15 48.2416 132.384C48.3235 132.85 48.5367 133.282 48.8559 133.631C49.1627 133.983 49.5159 134.292 49.9058 134.548C51.2519 135.455 52.8403 135.934 54.4631 135.924C55.5628 135.93 56.653 135.721 57.6725 135.309C58.3511 134.988 58.7087 134.745 58.7224 134.768Z" fill="#FAFAFA"/>
<path id="Vector_113" d="M56.3277 175.522L56.1993 175.435L55.8325 175.169C55.3544 174.837 54.8534 174.538 54.3333 174.275C52.4107 173.326 50.2876 172.854 48.1438 172.9C45.4434 172.9 42.2478 173.817 39.153 175.596C38.3591 176.044 37.6152 176.576 36.934 177.182C36.2183 177.8 35.6243 178.547 35.1826 179.383C34.7333 180.247 34.5864 181.236 34.7654 182.193C34.8729 182.669 35.1185 183.103 35.4714 183.44C35.6444 183.604 35.8571 183.721 36.0886 183.778C36.3201 183.835 36.5624 183.831 36.7918 183.766C37.2501 183.609 37.6296 183.28 37.8509 182.849C38.0843 182.417 38.2146 181.937 38.2315 181.446C38.2234 180.462 37.9199 179.504 37.3604 178.695C36.8279 177.913 36.1357 177.252 35.3293 176.756C34.5534 176.284 33.7018 175.951 32.8122 175.77C31.1469 175.46 29.4401 175.442 27.7689 175.72C26.3066 175.928 24.8615 176.244 23.4455 176.664C21.3947 177.289 19.4141 178.125 17.5357 179.158C16.8709 179.52 16.3665 179.823 16.0227 180.029L15.6375 180.268L15.5 180.341C15.5 180.341 15.5367 180.304 15.6238 180.245L15.9997 179.988C16.3299 179.768 16.8342 179.456 17.4944 179.071C19.3673 178.017 21.3488 177.168 23.4042 176.54C24.826 176.104 26.279 175.778 27.7506 175.564C29.4413 175.271 31.1706 175.28 32.8581 175.591C33.774 175.773 34.6508 176.114 35.4485 176.6C36.2842 177.109 37.0016 177.79 37.5529 178.599C38.1393 179.44 38.4589 180.439 38.4699 181.464C38.4522 181.994 38.3109 182.512 38.0572 182.977C37.8098 183.471 37.3785 183.848 36.856 184.027C36.5879 184.103 36.3047 184.109 36.034 184.043C35.7632 183.977 35.5141 183.842 35.3109 183.651C34.9238 183.278 34.6545 182.8 34.5361 182.276C34.3485 181.262 34.5101 180.215 34.9946 179.305C35.4494 178.442 36.0622 177.672 36.801 177.035C37.4983 176.422 38.2574 175.883 39.0659 175.426C42.1927 173.629 45.4296 172.753 48.1667 172.753C50.3325 172.718 52.4738 173.215 54.4021 174.202C55.0994 174.555 55.7469 174.999 56.3277 175.522Z" fill="#FAFAFA"/>
<path id="Vector_114" d="M24.0301 138.904C22.6546 131.857 12.6827 131.595 10.9359 138.56C10.9083 138.665 10.8808 138.775 10.8579 138.885C8.28584 149.857 16.974 182.276 19.3077 184.147C21.6414 186.017 23.9567 188.135 27.9455 186.48C30.2792 185.513 54.5099 164.097 54.5099 164.097C54.5099 164.097 60.1125 169.466 61.9831 168.998C63.8537 168.531 67.4207 163.038 67.4207 163.038C67.4207 163.038 70.8868 168.233 71.3223 168.311C71.5589 168.349 71.8016 168.322 72.0236 168.232C72.2456 168.141 72.4384 167.991 72.5806 167.798C72.7229 167.605 72.8091 167.377 72.8297 167.138C72.8504 166.899 72.8047 166.659 72.6978 166.445C72.2393 165.743 67.8195 156.083 67.8195 156.083C67.8195 156.083 71.2994 155.707 70.5979 154.538C70.5979 154.538 70.5108 153.465 68.1588 153.671C65.8068 153.878 65.8527 151.191 61.4742 151.448C57.0957 151.704 48.0544 152.823 35.3408 162.58L29.4493 166.733L24.0301 138.904Z" fill="#FFBE9D"/>
<path id="Vector_115" d="M35.3282 162.58L35.4749 162.461L35.9334 162.126L37.6527 160.838C39.8372 159.274 42.1122 157.841 44.4657 156.546C48.0655 154.552 51.9223 153.062 55.9277 152.117C57.0831 151.874 58.2798 151.659 59.5222 151.517C60.1458 151.448 60.7739 151.393 61.4158 151.347C62.0695 151.298 62.7266 151.328 63.3735 151.434C64.0404 151.551 64.6777 151.799 65.2487 152.163C65.8309 152.516 66.3215 153.007 66.9084 153.309C67.1923 153.457 67.5055 153.54 67.8253 153.552C68.1508 153.552 68.5085 153.511 68.8661 153.525C69.23 153.525 69.5912 153.587 69.9343 153.708C70.1248 153.762 70.2979 153.865 70.4363 154.006C70.5746 154.148 70.6735 154.323 70.7229 154.515V154.469C70.8163 154.616 70.8492 154.794 70.8146 154.964C70.764 155.128 70.6628 155.27 70.5258 155.372C70.2732 155.559 69.9911 155.701 69.6913 155.794C69.0941 155.983 68.4799 156.114 67.8574 156.184L67.9537 156.023L71.0622 162.749C71.6078 163.896 72.1488 165.074 72.7402 166.215C72.8356 166.357 72.9111 166.512 72.9649 166.674C72.997 166.85 72.997 167.03 72.9649 167.206C72.906 167.564 72.7205 167.89 72.4422 168.123C72.3043 168.239 72.1443 168.326 71.9717 168.379C71.7991 168.432 71.6176 168.449 71.4381 168.43H71.3052C71.2717 168.424 71.2392 168.413 71.2089 168.398L71.1447 168.352C71.0761 168.294 71.0118 168.231 70.9522 168.164C70.8375 168.04 70.7275 167.912 70.6266 167.779C69.43 166.248 68.3709 164.661 67.3164 163.102H67.5135C66.6845 164.366 65.7844 165.581 64.8177 166.743C64.3442 167.318 63.8277 167.856 63.2726 168.352C63.1305 168.471 62.9792 168.581 62.837 168.7C62.6804 168.805 62.5182 168.902 62.3511 168.989C62.1788 169.082 61.9893 169.138 61.7944 169.154C61.5995 169.169 61.4035 169.145 61.2186 169.081C60.5238 168.86 59.8656 168.537 59.2655 168.123C58.6649 167.733 58.0964 167.316 57.5416 166.885C56.4412 166.018 55.4097 165.115 54.4285 164.189H54.5752C46.8911 170.947 40.3119 176.623 35.6079 180.557C33.2559 182.524 31.3715 184.05 30.0511 185.059C29.3909 185.563 28.8728 185.939 28.5106 186.173C28.3315 186.299 28.1394 186.405 27.9375 186.49C27.9375 186.49 28.1392 186.389 28.4923 186.141C28.8453 185.893 29.3588 185.518 30.0098 185.004C31.3119 183.982 33.1825 182.437 35.5116 180.456C40.1927 176.495 46.7535 170.796 54.4239 164.024L54.4973 163.96L54.5706 164.029C55.5426 164.946 56.5788 165.862 57.6746 166.701C58.2201 167.128 58.7887 167.545 59.3801 167.926C59.9596 168.322 60.5946 168.631 61.2645 168.843C61.9522 169.099 62.5665 168.613 63.0984 168.159C63.642 167.67 64.1492 167.141 64.616 166.578C65.5755 165.423 66.4694 164.215 67.2935 162.96L67.3898 162.809L67.4906 162.956C68.5406 164.51 69.6088 166.101 70.7871 167.618C70.891 167.747 70.9965 167.871 71.1035 167.99C71.1585 168.045 71.2135 168.104 71.2685 168.15L71.3052 168.178C71.3052 168.178 71.3052 168.178 71.3052 168.219C71.3052 168.26 71.3052 168.292 71.3052 168.182H71.4152C71.5642 168.2 71.7151 168.186 71.8586 168.143C72.0021 168.099 72.1352 168.027 72.2497 167.93C72.4882 167.743 72.6452 167.472 72.6879 167.172C72.7307 166.872 72.6558 166.567 72.4789 166.321C71.8691 165.152 71.3373 163.987 70.7917 162.836L67.6878 156.101L67.6236 155.959H67.7795C68.3848 155.89 68.9821 155.763 69.563 155.579C69.8375 155.497 70.0964 155.37 70.3286 155.203C70.4268 155.13 70.5005 155.03 70.5395 154.914C70.5595 154.801 70.5366 154.685 70.4753 154.588V154.556C70.4272 154.408 70.3429 154.273 70.2301 154.165C70.1173 154.057 69.9794 153.979 69.8289 153.937C69.5105 153.827 69.1756 153.771 68.8386 153.772C68.4947 153.772 68.1646 153.804 67.7978 153.8C67.4364 153.786 67.0825 153.692 66.7616 153.525C66.1289 153.199 65.6475 152.709 65.0882 152.365C64.5398 152.017 63.9296 151.779 63.2909 151.663C62.021 151.434 60.7326 151.631 59.4993 151.741C58.266 151.851 57.0739 152.09 55.9232 152.328C51.922 153.256 48.0658 154.724 44.4611 156.693C42.1063 157.975 39.8242 159.386 37.6252 160.92L35.8921 162.181L35.4337 162.502L35.3282 162.58Z" fill="#EB996E"/>
<path id="Vector_116" d="M27.2728 174.619C27.2728 174.619 27.2223 174.5 27.1765 174.28C27.1135 173.964 27.0752 173.643 27.0619 173.321C26.943 171.177 27.5344 169.053 28.7445 167.279C28.9256 167.012 29.1247 166.757 29.3405 166.518C29.4964 166.353 29.5881 166.265 29.5973 166.275C29.6064 166.284 29.3084 166.687 28.8866 167.37C27.7783 169.159 27.2025 171.227 27.2269 173.331C27.2361 174.115 27.314 174.614 27.2728 174.619Z" fill="#EB996E"/>
<path id="Vector_117" d="M17.2542 126.713C17.0296 126.864 8.96031 129.276 7.69032 137.547C6.42032 145.818 7.16765 160.223 7.16765 160.223L29.0555 158.719L22.7789 129.643L17.2542 126.713Z" fill="#333333"/>
<path id="Vector_118" d="M63.7606 167.856C63.724 167.856 63.7836 167.558 63.7606 167.104C63.7376 166.51 63.5809 165.929 63.3022 165.403C63.0222 164.878 62.6292 164.42 62.1514 164.065C61.7846 163.799 61.5141 163.689 61.5278 163.647C61.7876 163.678 62.0354 163.774 62.2477 163.927C62.7841 164.265 63.2208 164.74 63.5131 165.303C63.8135 165.865 63.9546 166.499 63.9211 167.136C63.9265 167.386 63.8715 167.633 63.7606 167.856Z" fill="#EB996E"/>
<path id="Vector_119" d="M65.7765 165.404C65.6718 164.695 65.4184 164.016 65.0328 163.413C64.6471 162.809 64.1381 162.294 63.5391 161.901C63.7555 161.938 63.9589 162.03 64.1305 162.167C64.572 162.458 64.947 162.839 65.2309 163.285C65.5187 163.731 65.7079 164.233 65.7856 164.757C65.8388 164.97 65.8356 165.193 65.7765 165.404Z" fill="#EB996E"/>
<path id="Vector_120" d="M65.7773 160.177C65.7773 160.154 65.9837 160.246 66.2358 160.471C66.5607 160.77 66.8204 161.132 66.9987 161.536C67.177 161.94 67.27 162.377 67.272 162.818C67.272 163.153 67.2124 163.355 67.1849 163.35C67.1186 162.762 66.9816 162.185 66.7768 161.631C66.5014 161.109 66.166 160.621 65.7773 160.177Z" fill="#EB996E"/>
<path id="Vector_121" d="M26.3868 144.987C26.349 144.994 26.3101 144.994 26.2722 144.987L25.9421 144.95C25.5192 144.898 25.0937 144.869 24.6675 144.863C23.0988 144.847 21.5418 145.135 20.0827 145.712C17.9138 146.558 16.0497 148.037 14.7323 149.957C13.9484 151.066 13.5462 152.4 13.5861 153.758C13.6171 154.471 13.8285 155.165 14.2004 155.775C14.5892 156.393 15.1834 156.854 15.8785 157.077C16.5696 157.307 17.3214 157.271 17.9875 156.976C18.3009 156.827 18.5781 156.61 18.7998 156.343C19.0214 156.075 19.1823 155.763 19.2712 155.427C19.4231 154.757 19.3946 154.06 19.1887 153.405C19.0015 152.771 18.7069 152.174 18.3176 151.64C17.6255 150.713 16.7566 149.933 15.7611 149.344C14.7656 148.756 13.6632 148.37 12.5178 148.21C10.9621 148.006 9.38015 148.218 7.93299 148.825C7.54093 148.992 7.15966 149.183 6.79137 149.398L6.50712 149.572L6.40625 149.622C6.86177 149.264 7.36284 148.968 7.89631 148.742C9.35048 148.091 10.9549 147.85 12.5361 148.045C13.7104 148.195 14.8429 148.578 15.8666 149.173C16.8902 149.767 17.7845 150.561 18.4964 151.507C18.907 152.06 19.2173 152.68 19.4133 153.341C19.633 154.035 19.6631 154.776 19.5005 155.486C19.4039 155.856 19.228 156.2 18.9849 156.494C18.7418 156.789 18.4374 157.027 18.0929 157.192C17.369 157.511 16.5527 157.552 15.8005 157.307C15.0549 157.057 14.4205 156.554 14.0079 155.885C13.6091 155.249 13.3788 154.522 13.3385 153.772C13.3066 152.359 13.7364 150.975 14.5626 149.829C15.9114 147.881 17.8206 146.389 20.0369 145.551C21.5144 144.984 23.0905 144.719 24.6721 144.772C25.2494 144.786 25.8238 144.859 26.3868 144.987Z" fill="#FAFAFA"/>
<path id="Vector_122" d="M25.6369 133.113C25.4616 133.218 25.2756 133.304 25.0822 133.37C24.862 133.467 24.6352 133.548 24.4036 133.613C24.1036 133.717 23.7973 133.803 23.4867 133.869C23.1137 133.963 22.7355 134.035 22.3542 134.085C21.9416 134.154 21.5014 134.177 21.0338 134.209C20.0208 134.241 19.0071 134.172 18.0078 134.002C17.0122 133.814 16.0382 133.526 15.1011 133.14C14.6747 132.948 14.2666 132.774 13.909 132.567C13.5678 132.388 13.2371 132.189 12.9187 131.971C12.6519 131.799 12.3948 131.612 12.1484 131.412C11.9564 131.272 11.7741 131.118 11.6028 130.953C11.4446 130.825 11.3001 130.681 11.1719 130.522C11.204 130.481 11.8321 131.091 13.0058 131.834C13.3282 132.039 13.6619 132.226 14.0053 132.393C14.3901 132.596 14.7849 132.78 15.1882 132.943C17.0409 133.696 19.0303 134.054 21.0292 133.993C21.4877 133.966 21.9462 133.952 22.3313 133.892C22.7164 133.833 23.1107 133.778 23.4546 133.709C24.8163 133.42 25.6186 133.067 25.6369 133.113Z" fill="#FAFAFA"/>
<path id="Vector_123" d="M27.4466 147.138C27.4701 147.21 27.4869 147.284 27.497 147.358C27.5245 147.523 27.5612 147.734 27.6025 147.996C27.6942 148.582 27.8179 149.371 27.9692 150.393C28.2673 152.47 28.6845 155.354 29.1659 158.701V158.825H29.0467L23.93 159.182L12.0645 159.962L8.47005 160.173L7.48891 160.219H7.16797C7.2787 160.189 7.39257 160.172 7.50725 160.168L8.47922 160.081L12.0737 159.797L23.9346 158.944L29.0467 158.6L28.9412 158.729C28.4827 155.377 28.1068 152.489 27.8317 150.412C27.7033 149.403 27.6025 148.578 27.5291 148.005C27.497 147.739 27.4741 147.546 27.4557 147.358C27.4421 147.286 27.439 147.212 27.4466 147.138Z" fill="#263238"/>
<g id="Group_4" opacity="0.2">
<path id="Vector_124" d="M16.8315 126.483C16.6114 127.258 17.2257 127.982 17.6246 128.679C18.3949 130.018 18.4361 131.636 18.5049 133.181C18.5563 136.021 18.9927 138.84 19.8024 141.562C20.6827 144.249 22.1957 146.794 24.4331 148.527C26.6705 150.26 29.6735 151.108 32.4106 150.397C35.1478 149.687 37.4539 147.257 37.6877 144.437C37.9216 141.617 36.2206 139.105 35.2486 136.473C34.4967 134.447 34.162 132.292 33.7311 130.169C33.3001 128.046 32.7499 125.914 31.6266 124.067C30.5033 122.219 28.7199 120.674 26.5833 120.284C24.4468 119.895 22.026 120.903 21.1641 122.884" fill="black"/>
</g>
<path id="Vector_125" d="M27.4027 89.4652V91.8997L27.2422 128.399C27.2422 132.636 30.855 136.029 35.3894 136.015C39.9742 136.015 43.7567 132.521 43.8438 128.221C43.9401 123.727 44.1189 119.001 44.1189 119.001C44.1189 119.001 49.9232 118.143 51.2574 110.61C51.9222 106.869 51.8397 100.707 51.615 95.6685C51.5672 94.5933 51.3022 93.539 50.836 92.569C50.3698 91.599 49.7121 90.7335 48.9024 90.0245C48.0927 89.3155 47.1479 88.7777 46.1249 88.4437C45.1019 88.1096 44.0218 87.9861 42.9497 88.0806L27.4027 89.4652Z" fill="#FFBE9D"/>
<path id="Vector_126" d="M49.8488 100.3C49.8465 100.553 49.7456 100.795 49.5675 100.975C49.3894 101.155 49.1482 101.258 48.8952 101.263C48.7714 101.271 48.6471 101.255 48.5299 101.214C48.4127 101.173 48.3049 101.109 48.2132 101.026C48.1215 100.942 48.0476 100.841 47.9962 100.728C47.9448 100.615 47.9169 100.493 47.9141 100.369C47.9164 100.117 48.0169 99.8757 48.1941 99.6968C48.3713 99.5179 48.6113 99.4151 48.8631 99.4103C48.9869 99.401 49.1113 99.4168 49.2288 99.457C49.3462 99.4971 49.4543 99.5607 49.5465 99.6439C49.6387 99.7271 49.713 99.8281 49.765 99.9408C49.8169 100.054 49.8455 100.176 49.8488 100.3Z" fill="#263238"/>
<path id="Vector_127" d="M50.2253 98.8693C50.1015 98.9931 49.3817 98.4337 48.3364 98.4108C47.291 98.3879 46.5024 98.9014 46.4107 98.773C46.3557 98.7134 46.4841 98.4887 46.8188 98.2549C47.2739 97.9457 47.8138 97.7854 48.3639 97.7964C48.9051 97.8058 49.4297 97.9855 49.8631 98.3099C50.1795 98.5804 50.2849 98.8097 50.2253 98.8693Z" fill="#263238"/>
<path id="Vector_128" d="M39.9739 100.107C39.9715 100.36 39.8704 100.601 39.6922 100.78C39.514 100.959 39.2728 101.062 39.0202 101.065C38.8968 101.074 38.7729 101.058 38.656 101.017C38.539 100.977 38.4315 100.913 38.3398 100.83C38.2481 100.747 38.1742 100.646 38.1226 100.534C38.0709 100.421 38.0425 100.3 38.0391 100.176C38.0414 99.9236 38.1417 99.6821 38.3188 99.5024C38.4959 99.3228 38.7359 99.219 38.9881 99.213C39.1123 99.2037 39.2371 99.2197 39.3548 99.2601C39.4726 99.3006 39.5809 99.3645 39.6731 99.4482C39.7654 99.5319 39.8396 99.6334 39.8913 99.7467C39.943 99.86 39.9711 99.9826 39.9739 100.107Z" fill="#263238"/>
<path id="Vector_129" d="M39.9831 98.878C39.8593 99.0018 39.1349 98.4471 38.0942 98.4196C37.0534 98.3921 36.2602 98.9101 36.1686 98.7818C36.1135 98.7222 36.2419 98.4975 36.5766 98.2591C37.0327 97.952 37.5719 97.792 38.1217 97.8006C38.665 97.8065 39.192 97.9865 39.6255 98.3141C39.9373 98.5938 40.0427 98.823 39.9831 98.878Z" fill="#263238"/>
<path id="Vector_130" d="M43.6263 106.677C44.178 106.514 44.7478 106.42 45.3227 106.398C45.5932 106.398 45.8454 106.329 45.8912 106.15C45.9185 105.875 45.8626 105.599 45.7308 105.357C45.4878 104.706 45.2402 104.027 44.9789 103.317C43.9381 100.41 43.1862 98.0257 43.3054 97.9844C43.4246 97.9432 44.3599 100.277 45.4007 103.17L46.1205 105.219C46.282 105.544 46.3242 105.916 46.2397 106.269C46.1975 106.363 46.1343 106.447 46.0548 106.513C45.9753 106.579 45.8817 106.626 45.7812 106.65C45.6308 106.684 45.4771 106.703 45.3227 106.705C44.7582 106.763 44.1887 106.754 43.6263 106.677Z" fill="#263238"/>
<path id="Vector_131" d="M44.1256 119.019C40.5613 119.015 37.0686 118.018 34.0391 116.14C34.0391 116.14 36.4002 121.371 43.9698 120.798L44.1256 119.019Z" fill="#EB996E"/>
<path id="Vector_132" d="M43.14 109.181C42.9469 108.927 42.6923 108.727 42.4002 108.599C42.1082 108.472 41.7883 108.421 41.4711 108.452C41.2406 108.468 41.0158 108.531 40.8102 108.637C40.6046 108.742 40.4224 108.888 40.2745 109.066C40.1325 109.237 40.0462 109.447 40.0274 109.668C40.0085 109.89 40.0579 110.111 40.169 110.304C40.3337 110.498 40.5534 110.637 40.799 110.703C41.0446 110.77 41.3045 110.76 41.5444 110.675C42.0397 110.509 42.4976 110.247 42.8924 109.905C43.0107 109.823 43.1133 109.721 43.195 109.602C43.2321 109.544 43.2519 109.477 43.2519 109.408C43.2519 109.338 43.2321 109.271 43.195 109.213" fill="#EB996E"/>
<path id="Vector_133" d="M40.547 107.342C40.7166 107.342 40.6983 108.465 41.6565 109.285C42.6148 110.106 43.816 110.001 43.8206 110.161C43.8206 110.23 43.5501 110.377 43.0411 110.381C42.3772 110.38 41.7354 110.143 41.2301 109.712C40.7438 109.302 40.4376 108.718 40.3774 108.084C40.3407 107.635 40.4737 107.332 40.547 107.342Z" fill="#263238"/>
<path id="Vector_134" d="M40.3231 94.7975C40.2131 95.0772 39.1769 94.9259 37.9527 95.0497C36.7286 95.1735 35.7291 95.5082 35.5732 95.2331C35.5045 95.1093 35.6787 94.848 36.0821 94.582C36.6163 94.2469 37.2234 94.0456 37.8519 93.9952C38.4745 93.9349 39.1026 94.0213 39.6858 94.2474C40.1443 94.4399 40.3689 94.6646 40.3231 94.7975Z" fill="#263238"/>
<path id="Vector_135" d="M49.8961 95.8431C49.7081 96.0769 48.9791 95.8201 48.1309 95.7926C47.2827 95.7651 46.5354 95.921 46.3703 95.6734C46.3016 95.5496 46.4208 95.3158 46.7417 95.0957C47.176 94.8341 47.6783 94.7078 48.1847 94.7332C48.691 94.7585 49.1783 94.9342 49.5843 95.2379C49.8823 95.4855 49.9786 95.7147 49.8961 95.8431Z" fill="#263238"/>
<path id="Vector_136" d="M36.8721 87.0032C38.9169 89.667 36.8721 93.4816 34.5522 95.9299C32.2323 98.3781 29.4493 101.212 30.1141 104.499C30.8889 108.313 36.1385 110.711 35.4004 114.53C35.1299 115.906 34.0249 117.121 34.0525 118.542C34.0525 121.105 37.3994 122.32 38.3759 124.686C39.7147 127.936 36.1523 131.224 36.1294 134.736C36.1294 136.73 37.2664 138.578 37.3489 140.572C37.5094 144.657 32.7091 147.692 28.7387 146.73C24.7682 145.767 22.0128 141.897 21.1141 137.895C20.2155 133.892 20.8069 129.752 21.4076 125.713C21.027 127.437 18.4137 127.785 17.1254 126.579C15.837 125.373 15.6628 123.37 15.9333 121.632C16.6119 117.254 19.4453 113.526 20.7703 109.304C21.9302 105.608 21.8981 101.665 22.3841 97.8417C22.8701 94.018 24.0163 89.9925 26.9231 87.4342C29.8298 84.8759 34.8915 84.5137 37.2893 87.5534" fill="#263238"/>
<path id="Vector_137" d="M26.5207 145.23C26.5501 145.178 26.5822 145.128 26.6169 145.079C26.6857 144.974 26.782 144.827 26.9058 144.648C27.8232 143.192 28.336 141.518 28.3913 139.797C28.4474 138.41 28.1936 137.027 27.6485 135.749C27.0479 134.328 25.9888 132.998 24.8701 131.549C24.2795 130.81 23.7388 130.032 23.2517 129.22C22.7446 128.356 22.3823 127.414 22.1788 126.433C21.9554 125.377 22.0446 124.279 22.4356 123.274C22.6534 122.762 22.9643 122.296 23.3526 121.898C23.7553 121.509 24.1892 121.153 24.6501 120.835C25.567 120.184 26.484 119.528 27.0021 118.51C27.4642 117.456 27.5389 116.272 27.213 115.168C26.6628 112.876 25.0673 111.087 24.0449 109.093C23.5018 108.119 23.1779 107.037 23.0958 105.925C23.0494 104.854 23.2519 103.787 23.6872 102.807C24.5266 101.04 25.7388 99.4762 27.2405 98.2225C28.6159 96.9983 29.9455 95.9576 31.0504 94.8756C32.0713 93.9329 32.9213 92.8207 33.5629 91.5883C34.0439 90.6549 34.3367 89.6361 34.4249 88.5898C34.4767 87.9292 34.4099 87.2646 34.2277 86.6275C34.0993 86.169 33.9893 85.9765 34.0076 85.9673C34.1169 86.1737 34.206 86.3902 34.2736 86.6137C34.4783 87.2528 34.5607 87.9248 34.5166 88.5944C34.4487 89.6569 34.1647 90.6943 33.6821 91.6433C33.0453 92.8977 32.1951 94.0317 31.1696 94.9948C30.0647 96.0951 28.7214 97.145 27.3734 98.3692C25.8996 99.6182 24.7114 101.169 23.889 102.917C23.4715 103.866 23.277 104.898 23.3205 105.934C23.402 107.012 23.7148 108.06 24.2374 109.006C24.7509 109.987 25.3882 110.927 25.9934 111.913C26.6382 112.901 27.1239 113.984 27.433 115.122C27.7724 116.282 27.6912 117.524 27.2038 118.629C26.6674 119.716 25.6633 120.395 24.7738 121.036C24.3231 121.347 23.8984 121.693 23.5038 122.073C23.1312 122.448 22.8299 122.887 22.6144 123.37C22.2413 124.335 22.1553 125.388 22.3668 126.401C22.5626 127.367 22.9125 128.296 23.403 129.152C23.8859 129.95 24.4204 130.715 25.0031 131.444C26.108 132.884 27.1717 134.245 27.7769 135.699C28.3246 137.002 28.5707 138.413 28.4967 139.825C28.428 141.562 27.8823 143.247 26.9195 144.694C26.7866 144.882 26.6765 145.015 26.6078 145.111C26.582 145.153 26.5528 145.193 26.5207 145.23Z" fill="#455A64"/>
<path id="Vector_138" d="M82.7448 153.896L65.3684 184.238L40.7617 185.091V187.796H112.647L132.21 155.748C132.37 155.472 132.455 155.159 132.456 154.84C132.458 154.521 132.376 154.207 132.219 153.929C132.062 153.651 131.835 153.419 131.561 153.256C131.287 153.092 130.975 153.003 130.656 152.998H84.322C84.0037 152.998 83.6909 153.08 83.4144 153.238C83.1379 153.396 82.9071 153.622 82.7448 153.896Z" fill="#263238"/>
<path id="Vector_139" d="M104.506 170.094C103.415 171.79 101.755 172.657 100.756 172.024C99.7564 171.391 99.8619 169.507 100.953 167.811C102.044 166.114 103.704 165.248 104.703 165.88C105.703 166.513 105.597 168.397 104.506 170.094Z" fill="#E0E0E0"/>
</g>
<g id="Plant">
<path id="Vector_140" d="M191.203 174.114C191.176 174.033 191.142 173.955 191.102 173.88L190.785 173.202C190.406 172.325 190.099 171.419 189.868 170.492C189.254 168.08 189.039 164.394 189.951 160.02C190.443 157.636 191.091 155.287 191.89 152.987C192.716 150.488 193.669 147.838 194.449 144.977C195.33 141.99 195.755 138.886 195.709 135.771C195.595 132.516 194.627 129.265 193.568 126.028C192.509 122.792 191.418 119.61 191.088 116.432C190.725 113.365 191.343 110.26 192.853 107.565C194.256 104.98 196.021 102.77 197.342 100.477C198.577 98.3537 199.487 96.0573 200.042 93.6643C200.838 90.2001 200.896 86.6072 200.212 83.1192C199.971 81.8416 199.602 80.5913 199.111 79.3872C199.127 79.4712 199.148 79.554 199.176 79.6348C199.231 79.8136 199.304 80.052 199.4 80.35C199.676 81.2683 199.904 82.2003 200.083 83.1422C200.714 86.6159 200.621 90.1826 199.808 93.6184C199.243 95.9816 198.332 98.2482 197.103 100.344C195.783 102.609 194.008 104.81 192.578 107.428C191.027 110.172 190.385 113.337 190.744 116.469C191.074 119.711 192.175 122.888 193.229 126.138C194.284 129.389 195.242 132.585 195.366 135.789C195.411 138.871 194.995 141.941 194.132 144.9C193.367 147.751 192.422 150.401 191.611 152.905C190.818 155.218 190.18 157.581 189.699 159.979C188.809 164.385 189.061 168.108 189.726 170.524C189.974 171.455 190.309 172.361 190.726 173.229L191.074 173.894C191.108 173.972 191.151 174.046 191.203 174.114Z" fill="#263238"/>
<path id="Vector_141" d="M195.527 102.737C195.527 102.737 198.209 94.1587 193.395 89.1338C193.358 89.0924 193.31 89.0622 193.257 89.0468C193.204 89.0313 193.148 89.0313 193.094 89.0466C193.041 89.062 192.993 89.0921 192.956 89.1335C192.92 89.1749 192.895 89.2259 192.886 89.2805C192.629 90.6972 192.308 95.0115 195.527 102.737Z" fill="#333333"/>
<path id="Vector_142" d="M193.914 91.9907C193.921 92.5243 193.983 93.0558 194.097 93.5771C194.272 94.6637 194.478 95.9474 194.707 97.3595C194.936 98.7716 195.134 100.055 195.308 101.147C195.353 101.676 195.448 102.199 195.592 102.71C195.643 102.178 195.628 101.642 195.546 101.114C195.455 100.133 195.285 98.7854 195.037 97.3045C194.79 95.8236 194.538 94.494 194.331 93.5312C194.25 93.0038 194.11 92.4871 193.914 91.9907Z" fill="#263238"/>
<path id="Vector_143" d="M192.394 122.975C192.394 122.975 190.753 114.135 184.141 111.971C184.09 111.952 184.033 111.948 183.979 111.959C183.925 111.971 183.876 111.997 183.836 112.035C183.796 112.074 183.768 112.122 183.755 112.176C183.741 112.229 183.744 112.286 183.761 112.338C184.183 113.686 185.916 117.652 192.394 122.975Z" fill="#333333"/>
<path id="Vector_144" d="M185.926 114.231C186.188 114.698 186.495 115.137 186.843 115.543C187.508 116.428 188.287 117.459 189.135 118.601L191.428 121.668C191.717 122.114 192.047 122.533 192.413 122.92C192.207 122.431 191.942 121.969 191.625 121.544C191.088 120.719 190.304 119.609 189.396 118.413C188.489 117.216 187.64 116.162 187.003 115.41C186.692 114.976 186.33 114.58 185.926 114.231Z" fill="#263238"/>
<path id="Vector_145" d="M194.16 145.152C194.16 145.152 195.155 136.216 189.47 132.204C189.426 132.176 189.375 132.16 189.323 132.158C189.271 132.155 189.218 132.167 189.172 132.191C189.125 132.215 189.086 132.251 189.058 132.295C189.03 132.339 189.014 132.39 189.012 132.443C189.016 133.887 189.525 138.183 194.16 145.152Z" fill="#333333"/>
<path id="Vector_146" d="M190.527 134.909C190.639 135.43 190.803 135.939 191.018 136.427C191.398 137.468 191.843 138.682 192.338 140.026C192.834 141.369 193.255 142.589 193.65 143.629C193.797 144.139 193.991 144.635 194.227 145.11C194.176 144.58 194.059 144.058 193.879 143.556C193.604 142.607 193.177 141.319 192.655 139.888C192.132 138.458 191.628 137.22 191.238 136.317C191.054 135.822 190.816 135.35 190.527 134.909Z" fill="#263238"/>
<path id="Vector_147" d="M189.185 167.457C189.185 167.457 189.863 158.489 184.041 154.684C183.995 154.655 183.943 154.638 183.889 154.637C183.835 154.635 183.782 154.648 183.734 154.675C183.687 154.701 183.648 154.74 183.622 154.786C183.595 154.833 183.581 154.886 183.582 154.94C183.642 156.38 184.302 160.658 189.185 167.457Z" fill="#333333"/>
<path id="Vector_148" d="M185.191 157.352C185.314 157.869 185.493 158.372 185.723 158.851L187.172 162.4C187.713 163.73 188.199 164.931 188.612 165.953C188.778 166.459 188.99 166.948 189.244 167.416C189.171 166.886 189.034 166.367 188.836 165.871C188.529 164.954 188.057 163.661 187.484 162.272C186.911 160.882 186.361 159.644 185.943 158.76C185.745 158.264 185.493 157.792 185.191 157.352Z" fill="#263238"/>
<path id="Vector_149" d="M199.383 95.2002C199.383 95.2002 207.351 91.0371 207.507 84.082C207.508 84.0281 207.494 83.9749 207.468 83.9281C207.441 83.8813 207.402 83.8427 207.355 83.8163C207.308 83.79 207.254 83.7769 207.2 83.7784C207.147 83.78 207.094 83.7962 207.049 83.8252C205.857 84.6413 202.578 87.461 199.383 95.2002Z" fill="#333333"/>
<path id="Vector_150" d="M205.851 86.4707C205.479 86.8511 205.147 87.269 204.861 87.7178C204.21 88.6118 203.453 89.6617 202.614 90.8217C201.775 91.9816 201.009 93.0316 200.358 93.921C200.013 94.3276 199.706 94.765 199.441 95.2277C199.854 94.8884 200.222 94.4987 200.537 94.0677C201.165 93.3112 202 92.2338 202.875 91.0188C203.751 89.8039 204.512 88.6806 205.044 87.8507C205.365 87.4235 205.636 86.9603 205.851 86.4707Z" fill="#263238"/>
<path id="Vector_151" d="M190.82 113.627C190.82 113.627 199.027 109.959 199.609 103.022C199.616 102.966 199.606 102.909 199.582 102.858C199.557 102.807 199.518 102.764 199.47 102.734C199.422 102.704 199.367 102.689 199.31 102.689C199.254 102.69 199.198 102.707 199.151 102.738C197.927 103.508 194.479 106.103 190.82 113.627Z" fill="#333333"/>
<path id="Vector_152" d="M197.814 105.31C197.416 105.665 197.058 106.061 196.745 106.492L194.315 109.454L191.876 112.411C191.509 112.797 191.179 113.216 190.891 113.663C191.32 113.344 191.711 112.977 192.055 112.567C192.729 111.852 193.628 110.83 194.577 109.67C195.526 108.51 196.351 107.432 196.933 106.639C197.275 106.23 197.571 105.784 197.814 105.31Z" fill="#263238"/>
<path id="Vector_153" d="M195.546 134.18C195.546 134.18 201.181 127.174 198.54 120.742C198.519 120.691 198.486 120.647 198.442 120.614C198.398 120.581 198.346 120.561 198.292 120.556C198.237 120.551 198.182 120.561 198.133 120.585C198.084 120.608 198.042 120.645 198.013 120.691C197.256 121.916 195.376 125.817 195.546 134.18Z" fill="#333333"/>
<path id="Vector_154" d="M197.978 123.594C197.79 124.093 197.652 124.609 197.565 125.134C197.331 126.212 197.056 127.477 196.754 128.88C196.451 130.283 196.167 131.544 195.928 132.621C195.78 133.131 195.677 133.652 195.621 134.18C195.861 133.704 196.041 133.201 196.158 132.681C196.433 131.736 196.767 130.416 197.074 128.949C197.382 127.482 197.634 126.147 197.79 125.176C197.911 124.657 197.974 124.126 197.978 123.594Z" fill="#263238"/>
<path id="Vector_155" d="M189.965 158.369C189.965 158.369 198.107 154.564 198.571 147.622C198.576 147.567 198.566 147.51 198.541 147.46C198.516 147.41 198.477 147.368 198.429 147.339C198.381 147.309 198.326 147.294 198.27 147.295C198.214 147.296 198.159 147.312 198.112 147.343C196.897 148.108 193.495 150.786 189.965 158.369Z" fill="#333333"/>
<path id="Vector_156" d="M196.813 149.934C196.424 150.298 196.072 150.7 195.763 151.135L193.383 154.142L191.017 157.15C190.658 157.543 190.335 157.968 190.055 158.42C190.478 158.095 190.861 157.721 191.196 157.306C191.861 156.582 192.741 155.541 193.672 154.363C194.603 153.184 195.41 152.098 195.965 151.295C196.296 150.873 196.58 150.417 196.813 149.934Z" fill="#263238"/>
<path id="Vector_157" d="M173.746 123.025C173.746 123.025 173.746 123.09 173.746 123.223C173.746 123.355 173.746 123.566 173.746 123.796C173.769 124.337 173.801 125.066 173.842 125.978C173.943 127.894 174.09 130.563 174.269 133.772C174.851 137.023 176.506 140.649 178.734 144.129C180.367 146.711 182.077 149.053 183.553 151.236C184.894 153.136 186.101 155.128 187.166 157.196C187.866 158.601 188.432 160.068 188.858 161.579C189 162.115 189.105 162.533 189.169 162.822C189.195 162.969 189.235 163.113 189.289 163.252C189.284 163.098 189.265 162.945 189.234 162.794C189.197 162.501 189.11 162.074 188.981 161.529C188.6 159.994 188.064 158.503 187.381 157.077C186.341 154.977 185.147 152.958 183.81 151.034C182.343 148.838 180.642 146.49 179.019 143.923C176.804 140.438 175.154 136.89 174.553 133.69C174.328 130.48 174.145 127.826 174.007 125.895C173.934 124.979 173.874 124.263 173.833 123.722C173.833 123.493 173.792 123.305 173.774 123.149C173.768 123.107 173.759 123.066 173.746 123.025Z" fill="#263238"/>
<path id="Vector_158" d="M178.588 143.469C178.588 143.469 175.141 135.171 179.478 129.715C179.512 129.671 179.557 129.637 179.608 129.618C179.66 129.598 179.716 129.594 179.77 129.604C179.824 129.614 179.875 129.64 179.915 129.677C179.956 129.714 179.985 129.762 180 129.815C180.386 131.218 181.096 135.487 178.588 143.469Z" fill="#333333"/>
<path id="Vector_159" d="M179.217 132.622C179.068 133.134 178.977 133.662 178.946 134.194C178.822 135.171 178.685 136.523 178.579 138.018C178.474 139.513 178.424 140.874 178.424 141.855C178.389 142.389 178.421 142.925 178.52 143.451C178.613 142.927 178.659 142.396 178.657 141.865C178.731 140.764 178.818 139.471 178.914 138.041C179.01 136.61 179.107 135.317 179.18 134.217C179.248 133.688 179.26 133.153 179.217 132.622Z" fill="#263238"/>
<g id="Group_5" opacity="0.3">
<path id="Vector_160" d="M178.588 143.469C178.588 143.469 175.141 135.171 179.478 129.715C179.512 129.671 179.557 129.637 179.608 129.618C179.66 129.598 179.716 129.594 179.77 129.604C179.824 129.614 179.875 129.64 179.915 129.677C179.956 129.714 179.985 129.762 180 129.815C180.386 131.218 181.096 135.487 178.588 143.469Z" fill="black"/>
</g>
<path id="Vector_161" d="M189.277 163.477C189.277 163.477 186.526 154.922 191.276 149.856C191.313 149.815 191.36 149.785 191.414 149.769C191.467 149.754 191.523 149.753 191.576 149.768C191.63 149.783 191.678 149.812 191.715 149.853C191.753 149.893 191.778 149.943 191.789 149.998C192.06 151.41 192.417 155.724 189.277 163.477Z" fill="#333333"/>
<path id="Vector_162" d="M190.78 152.717C190.588 153.215 190.454 153.733 190.381 154.262C190.179 155.225 189.922 156.554 189.707 158.04C189.491 159.525 189.317 160.873 189.248 161.854C189.175 162.383 189.164 162.919 189.216 163.45C189.356 162.937 189.447 162.412 189.487 161.882C189.647 160.791 189.84 159.507 190.051 158.095C190.262 156.683 190.463 155.394 190.628 154.303C190.731 153.781 190.782 153.249 190.78 152.717Z" fill="#263238"/>
<g id="Group_6" opacity="0.3">
<path id="Vector_163" d="M189.277 163.478C189.277 163.478 186.526 154.923 191.276 149.857C191.313 149.815 191.36 149.786 191.414 149.77C191.467 149.755 191.523 149.754 191.576 149.769C191.63 149.784 191.678 149.813 191.715 149.854C191.753 149.894 191.778 149.944 191.789 149.999C192.06 151.411 192.417 155.725 189.277 163.478Z" fill="black"/>
</g>
<path id="Vector_164" d="M174.197 133.309C174.197 133.309 166.833 128.156 167.576 121.237C167.581 121.182 167.601 121.13 167.634 121.085C167.667 121.041 167.711 121.006 167.763 120.986C167.814 120.966 167.87 120.96 167.925 120.969C167.979 120.979 168.03 121.004 168.071 121.04C169.14 122.021 172.028 125.245 174.197 133.309Z" fill="#333333"/>
<g id="Group_7" opacity="0.3">
<path id="Vector_165" d="M174.197 133.309C174.197 133.309 166.833 128.155 167.576 121.237C167.581 121.182 167.601 121.129 167.634 121.085C167.667 121.04 167.711 121.006 167.763 120.985C167.814 120.965 167.87 120.959 167.925 120.969C167.979 120.978 168.03 121.003 168.071 121.04C169.14 122.021 172.028 125.244 174.197 133.309Z" fill="black"/>
</g>
<path id="Vector_166" d="M168.91 123.833C169.056 124.345 169.26 124.839 169.52 125.304C169.942 126.194 170.552 127.409 171.262 128.729C171.973 130.05 172.638 131.223 173.188 132.053C173.448 132.52 173.764 132.954 174.128 133.346C173.927 132.854 173.682 132.381 173.394 131.934L171.56 128.569L169.726 125.199C169.5 124.717 169.227 124.26 168.91 123.833Z" fill="#263238"/>
<path id="Vector_167" d="M186.306 154.995C186.306 154.995 177.421 153.62 175.041 147.073C175.023 147.022 175.019 146.966 175.029 146.913C175.04 146.859 175.065 146.81 175.102 146.769C175.139 146.729 175.186 146.7 175.238 146.685C175.291 146.669 175.346 146.669 175.399 146.683C176.807 147.064 180.8 148.696 186.306 154.995Z" fill="#333333"/>
<g id="Group_8" opacity="0.3">
<path id="Vector_168" d="M186.306 154.995C186.306 154.995 177.421 153.62 175.041 147.073C175.023 147.022 175.019 146.966 175.029 146.913C175.04 146.859 175.065 146.81 175.102 146.769C175.139 146.729 175.186 146.7 175.238 146.685C175.291 146.669 175.346 146.669 175.399 146.683C176.807 147.064 180.8 148.696 186.306 154.995Z" fill="black"/>
</g>
<path id="Vector_169" d="M177.371 148.806C177.731 149.2 178.134 149.552 178.572 149.856C179.338 150.47 180.406 151.291 181.644 152.148C182.882 153.006 183.996 153.772 184.854 154.285C185.291 154.593 185.765 154.844 186.266 155.032C185.868 154.681 185.44 154.365 184.986 154.088L181.846 151.892L178.724 149.668C178.303 149.336 177.85 149.047 177.371 148.806Z" fill="#263238"/>
<path id="Vector_170" d="M196.812 171.345L194.267 188.056L184.089 188.038L180.664 171.345H196.812Z" fill="#455A64"/>
<path id="Vector_171" d="M182.156 177.782C182.156 177.782 182.179 177.81 182.239 177.846C182.298 177.883 182.385 177.938 182.509 177.998C182.867 178.172 183.251 178.287 183.646 178.337C184.275 178.422 184.915 178.362 185.517 178.163C186.328 177.906 187.035 177.393 187.53 176.7C187.803 176.282 187.961 175.8 187.988 175.302C188.016 175.022 187.966 174.74 187.844 174.487C187.722 174.234 187.532 174.019 187.296 173.867C187.026 173.733 186.724 173.674 186.424 173.699C186.123 173.723 185.835 173.829 185.59 174.004C185.084 174.375 184.737 174.924 184.618 175.54C184.483 176.16 184.44 176.797 184.49 177.429C184.524 178.09 184.664 178.742 184.903 179.359C185.153 180.008 185.557 180.585 186.081 181.042C186.625 181.524 187.313 181.811 188.039 181.858C188.763 181.874 189.475 181.667 190.079 181.267C190.658 180.897 191.171 180.432 191.596 179.891C192.033 179.372 192.302 178.733 192.367 178.057C192.392 177.726 192.34 177.394 192.214 177.086C192.089 176.779 191.893 176.505 191.642 176.287C191.385 176.097 191.077 175.985 190.758 175.965C190.438 175.946 190.119 176.019 189.84 176.177C189.573 176.311 189.339 176.504 189.159 176.743C188.978 176.982 188.855 177.259 188.8 177.553C188.723 178.072 188.805 178.603 189.035 179.075C189.265 179.547 189.632 179.938 190.088 180.198C190.839 180.605 191.71 180.732 192.545 180.556C193.162 180.427 193.753 180.195 194.292 179.868C194.633 179.669 194.96 179.448 195.273 179.208C195.389 179.13 195.495 179.039 195.59 178.937C195.469 179.005 195.352 179.08 195.241 179.162C195.017 179.309 194.687 179.534 194.242 179.777C193.705 180.077 193.123 180.288 192.518 180.4C191.722 180.555 190.897 180.424 190.189 180.029C189.776 179.785 189.445 179.424 189.238 178.991C189.032 178.558 188.959 178.073 189.029 177.599C189.079 177.343 189.189 177.103 189.348 176.897C189.507 176.691 189.712 176.525 189.946 176.411C190.181 176.273 190.453 176.207 190.725 176.224C190.998 176.24 191.26 176.337 191.477 176.503C191.694 176.696 191.862 176.938 191.97 177.207C192.077 177.477 192.12 177.768 192.096 178.057C192.033 178.678 191.782 179.265 191.376 179.74C190.97 180.254 190.481 180.696 189.927 181.046C189.37 181.414 188.715 181.605 188.048 181.597C187.385 181.549 186.757 181.285 186.26 180.845C185.767 180.419 185.386 179.879 185.15 179.272C184.923 178.685 184.788 178.067 184.751 177.438C184.702 176.832 184.739 176.223 184.861 175.627C184.967 175.077 185.274 174.587 185.723 174.252C185.93 174.098 186.174 174.003 186.43 173.978C186.686 173.953 186.944 173.999 187.177 174.11C187.378 174.239 187.54 174.422 187.645 174.638C187.749 174.854 187.792 175.095 187.768 175.334C187.743 175.797 187.597 176.246 187.346 176.636C186.88 177.299 186.216 177.797 185.448 178.057C184.88 178.244 184.278 178.307 183.683 178.241C183.152 178.174 182.636 178.019 182.156 177.782Z" fill="#263238"/>
</g>
</g>
</svg>
